<?xml version="1.0" standalone="no"?>
<!DOCTYPE svg PUBLIC "-//W3C//DTD SVG 1.1//EN" "http://www.w3.org/Graphics/SVG/1.1/DTD/svg11.dtd" >
<!--
2013-9-30: Created.
-->
<svg>
<metadata>
Created by iconfont
</metadata>
<defs>

<font id="iconfont" horiz-adv-x="1024" >
  <font-face
    font-family="iconfont"
    font-weight="500"
    font-stretch="normal"
    units-per-em="1024"
    ascent="896"
    descent="-128"
  />
    <missing-glyph />
    
    <glyph glyph-name="liwu" unicode="&#58902;" d="M858.304512 473.838336 648.942592 473.838336c43.041792 28.939264 83.776512 66.617344 88.58624 107.684864 2.358272 20.025344-2.22208 49.388544-37.525504 75.53024-19.586048 14.51008-39.45984 21.844992-59.014144 21.844992-62.317568 0-97.565696-71.615488-116.614144-135.614464-22.769664 81.58208-66.72384 186.505216-142.217216 186.505216-22.018048 0-43.97056-8.94976-65.270784-26.602496-42.048512-34.879488-46.189568-71.092224-42.242048-95.343616 8.790016-54.243328 67.00032-100.873216 123.082752-134.00576L166.32832 473.837312c-16.954368 0-30.68416-13.73696-30.68416-30.691328l0-167.871488c0-16.951296 13.729792-30.68928 30.68416-30.68928l7.986176 0 0-367.096832c0-16.946176 13.737984-30.683136 30.686208-30.683136l614.596608 0c16.96768 0 30.722048 13.73696 30.722048 30.683136L850.31936 244.587264l7.986176 0c16.948224 0 30.701568 13.737984 30.701568 30.68928L889.007104 443.148032C889.00608 460.101376 875.252736 473.838336 858.304512 473.838336zM827.578368 308.798208 570.91072 308.798208l0 103.6288 256.667648 0L827.578368 308.798208zM640.98816 617.48608c6.013952 0 13.805568-3.38944 22.475776-9.816064 14.084096-10.416128 13.297664-16.847872 13.089792-18.97984-2.622464-22.36928-47.429632-57.603072-99.682304-86.647808C592.216064 563.977984 617.32864 617.48608 640.98816 617.48608zM335.25248 617.700096c-0.80384 5.035008-2.97472 18.453504 20.850688 38.23616 6.863872 5.66272 16.968704 12.443648 26.053632 12.443648 33.795072 0 68.554752-83.185664 88.813568-164.063232C407.14752 536.19072 341.143552 581.416704 335.25248 617.700096zM457.058304 412.425984l0-103.6288L197.035008 308.797184l0 103.6288L457.058304 412.425984zM235.727872 271.956736l221.330432 0 0-363.743232L235.727872-91.786496 235.727872 271.956736zM570.91072-91.786496 570.91072 271.956736l217.97376 0 0-363.743232L570.91072-91.786496z"  horiz-adv-x="1024" />

    
    <glyph glyph-name="xiangshangjiantouarrowup" unicode="&#58903;" d="M880.101759-133.489902c18.020155-17.819854 47.143649-17.819854 65.097286 0 17.953637 17.753339 17.953637 46.610574 0 64.429405L544.042085 326.89351c-18.020155 17.819854-47.077131 17.819854-65.097286 0L77.787839-69.059474c-17.953637-17.819854-18.020155-46.610574 0-64.429405s47.210166-17.819854 65.097286-0.066515l368.641064 350.141612L880.101759-133.489902 880.101759-133.489902z"  horiz-adv-x="1024" />

    
    <glyph glyph-name="category" unicode="&#59033;" d="M134.095238 640C147.560466 640 158.476191 649.551259 158.476191 661.333333 158.476191 673.115408 147.560466 682.666667 134.095238 682.666667L36.571428 682.666667C23.1062 682.666667 12.190476 673.115408 12.190476 661.333333 12.190476 649.551259 23.1062 640 36.571428 640L134.095238 640ZM134.095238 362.666667C147.560466 362.666667 158.476191 372.217926 158.476191 384 158.476191 395.782074 147.560466 405.333333 134.095238 405.333333L36.571428 405.333333C23.1062 405.333333 12.190476 395.782074 12.190476 384 12.190476 372.217926 23.1062 362.666667 36.571428 362.666667L134.095238 362.666667ZM134.095238 85.333333C147.560466 85.333333 158.476191 94.884593 158.476191 106.666667 158.476191 118.44874 147.560466 128 134.095238 128L36.571428 128C23.1062 128 12.190476 118.44874 12.190476 106.666667 12.190476 94.884593 23.1062 85.333333 36.571428 85.333333L134.095238 85.333333ZM987.428572 640C1000.893801 640 1011.809523 649.551259 1011.809523 661.333333 1011.809523 673.115408 1000.893801 682.666667 987.428572 682.666667L280.380951 682.666667C266.915725 682.666667 256 673.115408 256 661.333333 256 649.551259 266.915725 640 280.380951 640L987.428572 640ZM993.52381 362.666667C1006.989037 362.666667 1017.904762 372.217926 1017.904762 384 1017.904762 395.782074 1006.989037 405.333333 993.52381 405.333333L286.47619 405.333333C273.010963 405.333333 262.095238 395.782074 262.095238 384 262.095238 372.217926 273.010963 362.666667 286.47619 362.666667L993.52381 362.666667ZM996.571428 85.333333C1010.036657 85.333333 1020.952382 94.884593 1020.952382 106.666667 1020.952382 118.44874 1010.036657 128 996.571428 128L289.52381 128C276.058581 128 265.142857 118.44874 265.142857 106.666667 265.142857 94.884593 276.058581 85.333333 289.52381 85.333333L996.571428 85.333333Z"  horiz-adv-x="1024" />

    
    <glyph glyph-name="qrcode" unicode="&#59049;" d="M390.095238 825.756097 365.714285 850.211382 365.714285 507.837397 390.095238 532.292683 48.761905 532.292683 73.142857 507.837397 73.142857 850.211382 48.761905 825.756097 390.095238 825.756097ZM24.380952 874.666667 24.380952 850.211382 24.380952 507.837397 24.380952 483.382114 48.761905 483.382114 390.095238 483.382114 414.47619 483.382114 414.47619 507.837397 414.47619 850.211382 414.47619 874.666667 390.095238 874.666667 48.761905 874.666667 24.380952 874.666667ZM390.095238 238.829269 365.714285 263.284553 365.714285-79.089431 390.095238-54.634146 97.666649-54.634146C84.112298-54.634146 73.142857-43.635025 73.142857-30.035586L73.142857 263.284553 48.761905 238.829269 390.095238 238.829269ZM24.380952 287.739838 24.380952 263.284553 24.380952-30.035586C24.380952-70.651334 57.185576-103.544715 97.666649-103.544715L390.095238-103.544715 414.47619-103.544715 414.47619-79.089431 414.47619 263.284553 414.47619 287.739838 390.095238 287.739838 48.761905 287.739838 24.380952 287.739838ZM926.33335 825.756097C939.887701 825.756097 950.857143 814.756977 950.857143 801.157538L950.857143 507.837397 975.238095 532.292683 633.904762 532.292683 658.285715 507.837397 658.285715 850.211382 633.904762 825.756097 926.33335 825.756097ZM609.52381 874.666667 609.52381 850.211382 609.52381 507.837397 609.52381 483.382114 633.904762 483.382114 975.238095 483.382114 999.619049 483.382114 999.619049 507.837397 999.619049 801.157538C999.619049 841.773285 966.814423 874.666667 926.33335 874.666667L633.904762 874.666667 609.52381 874.666667ZM975.238095 238.829269 950.857143 263.284553 950.857143-79.089431 975.238095-54.634146 633.904762-54.634146 658.285715-79.089431 658.285715 263.284553 633.904762 238.829269 975.238095 238.829269ZM609.52381 287.739838 609.52381 263.284553 609.52381-79.089431 609.52381-103.544715 633.904762-103.544715 975.238095-103.544715 999.619049-103.544715 999.619049-79.089431 999.619049 263.284553 999.619049 287.739838 975.238095 287.739838 633.904762 287.739838 609.52381 287.739838ZM487.619049 507.559642C487.619049 494.053361 498.534771 483.104356 512 483.104356 525.465229 483.104356 536.380951 494.053361 536.380951 507.559642L536.380951 776.845529C536.380951 790.351809 525.465229 801.300813 512 801.300813 498.534771 801.300813 487.619049 790.351809 487.619049 776.845529L487.619049 507.559642ZM585.142857 214.628617C585.142857 228.134897 574.227134 239.0839 560.761905 239.0839 547.296676 239.0839 536.380951 228.134897 536.380951 214.628617L536.380951-79.089431C536.380951-92.595712 547.296676-103.544715 560.761905-103.544715 574.227134-103.544715 585.142857-92.595712 585.142857-79.089431L585.142857 214.628617ZM487.619049 116.552845C487.619049 130.059125 476.703324 141.00813 463.238095 141.00813 449.772866 141.00813 438.857143 130.059125 438.857143 116.552845L438.857143-79.089431C438.857143-92.595712 449.772866-103.544715 463.238095-103.544715 476.703324-103.544715 487.619049-92.595712 487.619049-79.089431L487.619049 116.552845ZM999.619049 361.105692C1013.084275 361.105692 1024 372.054694 1024 385.560975 1024 399.067255 1013.084275 410.01626 999.619049 410.01626L24.380952 410.01626C10.915724 410.01626 0 399.067255 0 385.560975 0 372.054694 10.915724 361.105692 24.380952 361.105692L999.619049 361.105692Z"  horiz-adv-x="1024" />

    
    <glyph glyph-name="viewlist" unicode="&#59061;" d="M146.571481 846.048781 347.295185 846.048781C388.825594 846.048781 422.4 812.54407 422.4 770.941234L422.4 546.52218C422.4 505.022859 388.764036 471.414635 347.295185 471.414635L146.571481 471.414635C105.041073 471.414635 71.466667 504.919345 71.466667 546.52218L71.466667 770.941234C71.466667 812.440555 105.10263 846.048781 146.571481 846.048781ZM21.333333 546.52218C21.333333 477.349489 77.335661 421.463415 146.571481 421.463415L347.295185 421.463415C416.483543 421.463415 472.533333 477.466982 472.533333 546.52218L472.533333 770.941234C472.533333 840.113925 416.531006 896 347.295185 896L146.571481 896C77.383122 896 21.333333 839.996433 21.333333 770.941234L21.333333 546.52218ZM146.571481 296.585365 347.295185 296.585365C388.825594 296.585365 422.4 263.080655 422.4 221.47782L422.4-2.941233C422.4-44.440555 388.764036-78.048781 347.295185-78.048781L146.571481-78.048781C105.041073-78.048781 71.466667-44.54407 71.466667-2.941233L71.466667 221.47782C71.466667 262.977141 105.10263 296.585365 146.571481 296.585365ZM21.333333-2.941233C21.333333-72.113924 77.335661-128 146.571481-128L347.295185-128C416.483543-128 472.533333-71.996433 472.533333-2.941233L472.533333 221.47782C472.533333 290.650511 416.531006 346.536585 347.295185 346.536585L146.571481 346.536585C77.383122 346.536585 21.333333 290.533018 21.333333 221.47782L21.333333-2.941233ZM998.933333 746.146342C1012.777271 746.146342 1024 757.328303 1024 771.121951 1024 784.9156 1012.777271 796.097561 998.933333 796.097561L572.8 796.097561C558.956062 796.097561 547.733333 784.9156 547.733333 771.121951 547.733333 757.328303 558.956062 746.146342 572.8 746.146342L998.933333 746.146342ZM998.933333 621.268292C1012.777271 621.268292 1024 632.450255 1024 646.243902 1024 660.037551 1012.777271 671.219511 998.933333 671.219511L572.8 671.219511C558.956062 671.219511 547.733333 660.037551 547.733333 646.243902 547.733333 632.450255 558.956062 621.268292 572.8 621.268292L998.933333 621.268292ZM998.933333 496.390244C1012.777271 496.390244 1024 507.572205 1024 521.365854 1024 535.159503 1012.777271 546.341463 998.933333 546.341463L572.8 546.341463C558.956062 546.341463 547.733333 535.159503 547.733333 521.365854 547.733333 507.572205 558.956062 496.390244 572.8 496.390244L998.933333 496.390244ZM998.933333 221.658537C1012.777271 221.658537 1024 232.840497 1024 246.634146 1024 260.427795 1012.777271 271.609756 998.933333 271.609756L572.8 271.609756C558.956062 271.609756 547.733333 260.427795 547.733333 246.634146 547.733333 232.840497 558.956062 221.658537 572.8 221.658537L998.933333 221.658537ZM998.933333 96.780489C1012.777271 96.780489 1024 107.962449 1024 121.756098 1024 135.549745 1012.777271 146.731708 998.933333 146.731708L572.8 146.731708C558.956062 146.731708 547.733333 135.549745 547.733333 121.756098 547.733333 107.962449 558.956062 96.780489 572.8 96.780489L998.933333 96.780489ZM998.933333-28.097562C1012.777271-28.097562 1024-16.915599 1024-3.121952 1024 10.671697 1012.777271 21.853658 998.933333 21.853658L572.8 21.853658C558.956062 21.853658 547.733333 10.671697 547.733333-3.121952 547.733333-16.915599 558.956062-28.097562 572.8-28.097562L998.933333-28.097562Z"  horiz-adv-x="1024" />

    
    <glyph glyph-name="xin" unicode="&#58913;" d="M705.403848 747.53171c-76.854389 0-148.311861-38.554084-195.34506-102.123912-47.007617 63.587224-118.448716 102.123912-195.344037 102.123912-138.54031 0-251.251348-123.228579-251.251348-274.711665 0-90.369194 40.368406-153.767106 72.820516-204.702172 94.311992-147.95268 331.443761-332.071048 341.487511-339.834872 9.676383-7.479345 20.989033-11.222599 32.275077-11.222599 11.31265 0 22.607904 3.744277 32.270984 11.222599 10.057053 7.763824 247.205195 191.882192 341.488535 339.834872 32.466436 50.939159 72.849168 114.332978 72.849168 204.702172C956.655196 624.30313 843.939041 747.53171 705.403848 747.53171L705.403848 747.53171zM837.929164 303.082198c-89.77056-140.875494-327.883679-324.878229-327.883679-324.878229s-238.086513 184.002734-327.887772 324.878229c-33.120328 52.005444-62.774719 101.438297-62.774719 169.736822 0 117.939109 87.443561 213.58447 195.331757 213.58447 79.730902 0 148.175761-52.308343 178.538279-127.194914l0 0.37146 0.080841 0c2.26253-7.806803 8.857738-13.501502 16.711614-13.501502 7.880481 0 14.474666 5.694699 16.720823 13.501502l0.230244 0c30.435173 74.66349 98.785887 126.823454 178.406273 126.823454 107.86159 0 195.331757-95.64536 195.331757-213.58447C900.734582 404.520495 871.075075 355.088666 837.929164 303.082198L837.929164 303.082198zM837.929164 303.082198"  horiz-adv-x="1024" />

    
    <glyph glyph-name="paimai" unicode="&#59124;" d="M410.4 328.7c-11.2 6.5-25.5 2.6-32-8.6l-7.8-13.5c-6.5-11.2-2.6-25.5 8.6-32 11.2-6.5 25.5-2.6 32 8.6l7.8 13.5C425.4 308 421.6 322.3 410.4 328.7zM496.2-79.5 90.6-79.5c-17.2 0-31.2-14-31.2-31.2 0-17.2 14-31.2 31.2-31.2l405.6 0c17.2 0 31.2 14 31.2 31.2C527.4-93.5 513.4-79.5 496.2-79.5zM963.6 162.2 585 361.4l84.6 146.5c17.2 29.8 7 68-22.8 85.2L403.6 733.5c-29.8 17.2-68 7-85.2-22.8L53.1 251.4c-17.2-29.8-7-68 22.8-85.2l243.2-140.4c29.8-17.2 68-7 85.2 22.8l85 147.3 365-222.8c14.9-8.6 34-3.5 42.6 11.4l78 135.1C983.7 134.5 978.5 153.6 963.6 162.2zM366 106.8c-8.6-14.9-27.7-20-42.6-11.4L134.2 204.6c-14.9 8.6-20 27.7-11.4 42.6l234 405.3c8.6 14.9 27.7 20 42.6 11.4l189.1-109.2c14.9-8.6 20-27.7 11.4-42.6L366 106.8zM858.6 42.7 521.4 251.2l31.2 54 352.8-181.5L858.6 42.7zM519.6 517.9c-11.2 6.5-25.5 2.6-32-8.6l-70.2-121.6c-6.5-11.2-2.6-25.5 8.6-32s25.5-2.6 32 8.6l70.2 121.6C534.6 497.1 530.8 511.4 519.6 517.9z"  horiz-adv-x="1024" />

    
    <glyph glyph-name="navlist" unicode="&#59130;" d="M284.416 777.984l711.168 0C1011.2768 777.984 1024 790.7072 1024 806.4c0 15.6928-12.7232 28.416-28.416 28.416L284.416 834.816C268.7232 834.816 256 822.0928 256 806.4 256 790.7072 268.7232 777.984 284.416 777.984zM125.184 834.816 28.416 834.816C12.7232 834.816 0 822.0928 0 806.4c0-15.6928 12.7232-28.416 28.416-28.416l96.768 0C140.8768 777.984 153.6 790.7072 153.6 806.4 153.6 822.0928 140.8768 834.816 125.184 834.816zM995.584 553.216 284.416 553.216c-15.6928 0-28.416-12.7232-28.416-28.416 0-15.6928 12.7232-28.416 28.416-28.416l711.168 0c15.6928 0 28.416 12.7232 28.416 28.416C1024 540.4928 1011.2768 553.216 995.584 553.216zM125.184 553.216 28.416 553.216C12.7232 553.216 0 540.4928 0 524.8c0-15.6928 12.7232-28.416 28.416-28.416l96.768 0C140.8768 496.384 153.6 509.1072 153.6 524.8 153.6 540.4928 140.8768 553.216 125.184 553.216zM585.984-9.984 284.416-9.984c-15.6928 0-28.416-12.7232-28.416-28.3904 0-15.6928 12.7232-28.4416 28.416-28.4416l301.568 0c15.6928 0 28.416 12.7488 28.416 28.4416C614.4-22.7072 601.6768-9.984 585.984-9.984zM125.184-9.984 28.416-9.984C12.7232-9.984 0-22.7072 0-38.3744c0-15.6928 12.7232-28.4416 28.416-28.4416l96.768 0c15.6928 0 28.416 12.7488 28.416 28.4416C153.6-22.7072 140.8768-9.984 125.184-9.984zM585.984 271.616 284.416 271.616c-15.6928 0-28.416-12.7232-28.416-28.3904 0-15.6928 12.7232-28.4416 28.416-28.4416l301.568 0c15.6928 0 28.416 12.7488 28.416 28.4416C614.4 258.8928 601.6768 271.616 585.984 271.616zM125.184 271.616 28.416 271.616C12.7232 271.616 0 258.8928 0 243.2256c0-15.6928 12.7232-28.4416 28.416-28.4416l96.768 0c15.6928 0 28.416 12.7488 28.416 28.4416C153.6 258.8928 140.8768 271.616 125.184 271.616zM995.584 166.3744l-122.368 0 0 122.368c0 15.6928-12.7232 28.416-28.3904 28.416-15.6928 0-28.416-12.7232-28.416-28.416l0-122.368L694.016 166.3744c-15.6928 0-28.416-12.7232-28.416-28.416 0-15.6672 12.7232-28.3904 28.416-28.3904l122.3424 0L816.3584-12.8c0-15.6928 12.7232-28.416 28.416-28.416 15.6672 0 28.3904 12.7232 28.3904 28.416l0 122.3424 122.368 0c15.6928 0 28.416 12.7232 28.416 28.3904C1024 153.6512 1011.2768 166.3744 995.584 166.3744z"  horiz-adv-x="1024" />

    
    <glyph glyph-name="dianpuyindao" unicode="&#58904;" d="M831.2833-83.148353 767.392154-83.148353 767.392154 236.306352c0 35.286668-28.603455 63.891146-63.891146 63.891146L575.71974 300.197498c-35.286668 0-63.891146-28.603455-63.891146-63.891146l0-319.454706L192.373889-83.148353 192.373889 300.196475l-63.891146 0 0-383.344828c0-35.286668 28.603455-63.891146 63.891146-63.891146l383.344828 0 127.781268 0 127.781268 0c35.286668 0 63.891146 28.604478 63.891146 63.891146L895.172399 300.196475l-63.891146 0L831.281253-83.148353zM575.71974-83.148353 575.71974 236.306352l127.781268 0 0-319.454706L575.71974-83.148353zM447.937448 140.469634c0 52.927443-42.909276 95.836719-95.836719 95.836719-52.927443 0-95.836719-42.909276-95.836719-95.836719 0-52.927443 42.909276-95.836719 95.836719-95.836719C405.028173 44.633938 447.937448 87.54219 447.937448 140.469634zM320.15618 140.469634c0 17.640776 14.304797 31.945573 31.945573 31.945573 17.640776 0 31.945573-14.304797 31.945573-31.945573 0-17.639752-14.304797-31.945573-31.945573-31.945573C334.460977 108.524061 320.15618 122.829881 320.15618 140.469634zM1022.955714 683.542326c0 35.286668-28.603455 63.891146-63.891146 63.891146L63.912122 747.433472c-35.286668 0-63.891146-28.603455-63.891146-63.891146l0-204.91502c0-64.869427 62.703087-114.539686 128.804574-114.539686 37.798884 0 71.758324 16.415878 95.15315 42.500976 23.394826-26.085098 57.354266-42.500976 95.15315-42.500976 38.492686 0 73.006757 17.020652 96.433306 43.944861 23.426549-26.924209 57.94062-43.944861 96.433306-43.944861 38.399565 0 72.838935 16.939811 96.262414 43.751457 23.423479-26.810622 57.861826-43.751457 96.262414-43.751457 38.169321 0 72.42245 16.739243 95.836719 43.271526 23.414269-26.53126 57.667398-43.271526 95.836719-43.271526 70.573335 0 126.757962 57.207933 126.757962 127.781268L1022.954691 683.542326zM896.196729 427.978766c-35.286668 0-63.891146 28.604478-63.891146 63.891146L768.41546 491.869912c0-35.286668-28.603455-63.891146-63.891146-63.891146-35.286668 0-63.891146 28.604478-63.891146 63.891146l-0.851391 0-63.039755 0-0.851391 0c0-35.286668-28.603455-63.891146-63.891146-63.891146-35.286668 0-64.914452 28.604478-64.914452 63.891146l-63.039755 0c0-35.286668-28.603455-63.891146-63.891146-63.891146-31.628348 0-63.891146 18.184151-63.891146 63.891146l-64.570621 0c0-41.954531-32.261775-63.891146-63.891146-63.891146-35.286668 0-62.187341 28.604478-62.187341 63.891146L65.61388 683.542326l893.448642 0 0-191.672414C959.064568 456.582221 931.48442 427.978766 896.196729 427.978766z"  horiz-adv-x="1024" />

    
    <glyph glyph-name="shuqian" unicode="&#59052;" d="M865.216 727.904c-12.8 12.8-28.608 19.2-47.36 19.2L206.208 747.104c-12.032 0-23.04-2.752-33.344-8.32-10.24-5.504-18.368-13.44-24.384-23.68C142.528 704.8 139.52 693.728 139.52 681.696l0-765.376c0-11.968 3.008-23.104 9.024-33.344 6.016-10.24 14.144-18.176 24.384-23.808 10.24-5.44 21.312-8.32 33.344-8.32l611.648 0c18.752 0 34.56 6.528 47.36 19.328s19.264 28.224 19.264 46.144L884.544 681.696C884.416 699.68 878.016 715.104 865.216 727.904zM646.08 694.88l60.032 0 0-188.416c-0.704-3.968-2.24-6.272-4.608-7.04l-5.952 3.52c-6.272 7.872-12.544 11.392-18.816 10.624-7.04 0-14.144-3.52-21.248-10.624l-4.608-2.368c-3.2 0-4.736 2.368-4.736 7.104L646.144 694.88zM292.224-96.736l-64 0c-11.712 0-21.76 4.096-30.08 12.48-8.384 8.256-12.608 18.432-12.608 30.144L185.536 652.192c0 7.552 1.92 14.656 5.696 21.312 3.776 6.656 8.768 11.968 15.04 15.68C212.544 692.96 219.84 694.88 228.224 694.88l64 0L292.224-96.736zM823.296-84.896c-8.448-8.384-18.88-12.544-31.424-12.544L342.016-97.44 342.016 695.52l257.6 0 0-261.376c0-10.816 3.776-16.32 11.264-16.32l11.264 5.056c30.208 22.656 47.872 33.92 52.864 33.92 10.944 0 28.032-11.328 51.52-33.92l11.328-5.056c7.552 0 11.328 5.44 11.328 16.32L749.184 695.52l42.752 0c11.712 0 21.824-4.16 30.144-12.544 8.448-8.384 12.544-18.432 12.544-30.144l0-707.456 1.344 0C835.904-66.464 831.616-76.576 823.296-84.896z"  horiz-adv-x="1024" />

    
    <glyph glyph-name="daishouhuo" unicode="&#59189;" d="M351.958429 236.505246 223.84331 236.505246c-17.702808 0-32.02878 14.325972-32.02878 32.02878s14.325972 32.02878 32.02878 32.02878l96.08634 0 0 96.08634c0 17.702808 14.325972 32.02878 32.02878 32.02878s32.02878-14.325972 32.02878-32.02878l0-128.115119C383.987209 250.831218 369.661237 236.505246 351.958429 236.505246L351.958429 236.505246 351.958429 236.505246zM702.330768 145.535325c-62.010992 0-113.789148-43.284901-127.398821-101.202758l-123.817328 0c-13.507345 57.917857-65.387829 101.305086-127.398821 101.305086-72.346158 0-131.184971-58.838813-131.184971-131.184971s58.838813-131.287299 131.184971-131.287299c60.373738 0 110.923953 41.340662 126.068552 97.109623l126.477865 0c15.144599-55.666633 65.694814-97.109623 126.068552-97.109623 72.243829 0 131.082642 58.838813 131.082642 131.184971C833.413411 86.696512 774.574598 145.535325 702.330768 145.535325L702.330768 145.535325 702.330768 145.535325zM323.715799-52.777056c-37.04287 0-67.127411 30.186869-67.127411 67.229739 0 37.04287 30.084541 67.127411 67.127411 67.127411 37.04287 0 67.127411-30.084541 67.127411-67.127411C390.84321-22.692515 360.758669-52.777056 323.715799-52.777056L323.715799-52.777056 323.715799-52.777056zM702.330768-52.777056c-37.04287 0-67.127411 30.084541-67.127411 67.127411s30.084541 67.127411 67.127411 67.127411c36.940542 0 67.025082-30.084541 67.025082-67.127411C769.458179-22.692515 739.373638-52.777056 702.330768-52.777056L702.330768-52.777056 702.330768-52.777056zM862.98631 716.834616 399.131808 716.834616c-44.001199 0-79.611472-35.81493-79.611472-79.611472l0-92.402518-194.423903-97.723593c-1.330269-0.716299-2.660538-1.432597-3.990806-2.353553C84.983711 419.263715 65.132008 379.764965 65.132008 333.307884l0-321.720396c0-17.702808 14.325972-32.02878 32.02878-32.02878s32.02878 14.325972 32.02878 32.02878L129.189567 333.307884c0 24.968122 9.107225 44.512841 26.912361 57.815529l209.773159 105.398221c1.432597 0.716299 2.353553 2.046567 3.683821 2.865194 1.944239 1.330269 3.78615 2.455881 5.218747 4.093135 1.432597 1.534926 2.353553 3.376836 3.479165 5.01409s2.251224 3.376836 3.069851 5.218747c0.818627 2.148896 1.023284 4.40012 1.330269 6.753672 0.204657 1.534926 0.920955 2.865194 0.920955 4.604777L383.577895 637.223144c0 8.595583 7.060658 15.758569 15.758569 15.758569l463.752173 0c17.60048 0 32.02878-14.530629 32.02878-32.438093l0-606.807235c0-17.702808 14.325972-32.02878 32.02878-32.02878s32.02878 14.325972 32.02878 32.02878L959.174978 620.441291C958.867992 673.549715 915.787749 716.834616 862.98631 716.834616L862.98631 716.834616 862.98631 716.834616z"  horiz-adv-x="1024" />

    
    <glyph glyph-name="sousuo" unicode="&#59029;" d="M866.508571 203.169515M767.547699 480.195899c0-194.283892-157.499104-351.782995-351.782995-351.782995-194.284915 0-351.782995 157.499104-351.782995 351.782995 0 194.284915 157.499104 351.782995 351.782995 351.782995C610.048595 831.978894 767.547699 674.480814 767.547699 480.195899zM415.764704 768.018164c-158.960385 0-287.823288-128.862903-287.823288-287.823288s128.862903-287.823288 287.823288-287.823288 287.823288 128.862903 287.823288 287.823288S574.725088 768.018164 415.764704 768.018164zM950.466752-52.917978c-12.261255-12.712533-32.507368-13.075807-45.218878-0.814552L629.036042 212.691379c-12.712533 12.261255-13.075807 32.508391-0.814552 45.219901l0 0c12.261255 12.712533 32.507368 13.075807 45.218878 0.814552L949.6522-7.698077C962.364733-19.959332 962.72903-40.205445 950.466752-52.917978L950.466752-52.917978z"  horiz-adv-x="1024" />

    
    <glyph glyph-name="jiangbei" unicode="&#58907;" d="M91.204075 50.738097c0.030206 0.688701 0.070481 1.374382 0.104715 2.062076C91.239315 52.122547 91.204075 51.433846 91.204075 50.738097zM810.145694 461.291606c0.214464 0.38966 0.428928 0.77932 0.642385 1.170993C810.561532 462.079987 810.347068 461.690328 810.145694 461.291606zM880.805026 725.79918 127.92675 725.79918c-69.300054 0-125.479545-51.423022-125.479545-125.479545 0-30.899928 84.01047-204.96412 88.61188-211.061744 4.602417-6.097623 11.890164-10.057655 20.121352-10.057655 8.232194 0 15.519942 3.960032 20.121352 10.057655 3.182726 4.216784 5.092764 9.44749 5.092764 15.136323 0 4.035547-0.974653 7.835486-2.662172 11.216566-0.204395 0.390667-0.407784 0.77932-0.611172 1.170993C101.556744 477.37741 72.412802 553.592669 65.193522 575.223323c-20.092152 60.204969 32.388087 100.383233 87.828533 100.383233l125.464442 0 0-271.242548 0.023158 0c-0.009062-0.752134-0.023158-1.501248-0.023158-2.254389 0-97.069614 131.756392-218.45924 200.782576-247.196405l0-125.991036L366.338187 28.922178c-27.720223 0-50.191617-22.470387-50.191617-50.191617l0-50.192623c0-27.72123 22.471394-50.192623 50.191617-50.192623l276.055402 0c27.720223 0 50.192623 22.470387 50.192623 50.192623l0 50.192623c0 27.720223-22.471394 50.191617-50.192623 50.191617l-112.930886 0L529.462703 154.913214c69.025178 28.737165 200.780563 150.128805 200.780563 247.196405 0 0.753141-0.015103 1.502255-0.021144 2.254389l0.021144 0L730.243266 675.607563l125.465449 0c55.440446 0 100.362089-31.344966 87.828533-100.383233-4.422187-24.350219-37.588586-100.229182-70.046147-159.498766-0.265814-0.487327-0.532636-0.974653-0.800464-1.459966-1.718732-3.396183-2.708489-7.217266-2.708489-11.275972 0-5.069606 1.523399-9.778751 4.119118-13.731735 4.534956-6.899094 12.368429-11.469291 21.291338-11.469291s16.89533 4.64974 21.290331 11.469291c4.393994 6.819551 89.602643 181.87652 89.602643 211.061744C1006.284571 669.619689 950.106087 725.79918 880.805026 725.79918zM642.393589-33.817091l0-25.096312c0-6.928294-5.618352-12.547652-12.547652-12.547652L378.88584-71.461055c-6.930307 0-12.547652 5.619359-12.547652 12.547652l0 25.096312c0 6.930307 5.617345 12.548659 12.547652 12.548659l250.960097 0C636.775237-21.268432 642.393589-26.886784 642.393589-33.817091zM680.044601 519.159623l0-114.795615c0-91.03341-134.270554-205.556162-175.67821-205.556162-41.408663 0-175.679217 114.522752-175.679217 205.556162L328.687175 519.159623l0 156.447941 351.357426 0L680.044601 519.159623zM302.853832 811.000781l-0.014096-0.014096c20.436503-20.435496 48.669224-33.076788 79.855105-33.076788 31.184873 0 59.417595 12.640285 79.855105 33.077795 11.354508 11.352494 27.039577 18.375434 44.363835 18.375434 17.325265 0 33.010334-7.020926 44.364842-18.375434 20.436503-20.43751 48.669224-33.075781 79.854098-33.075781 30.735808 0 58.598 12.281838 78.958988 32.200808 5.176335 4.596376 8.441624 11.29913 8.441624 18.767108 0 13.860615-11.235697 25.095305-25.095305 25.095305-7.016899 0-13.358185-2.882678-17.911265-7.524363l-0.028192 0.028192c-11.354508-11.354508-27.039577-18.375434-44.365849-18.375434-17.324258 0-33.009327 7.021933-44.362828 18.375434-20.43751 20.436503-48.669224 33.075781-79.856112 33.075781-31.18588 0-59.418602-12.639278-79.854098-33.076788-11.353501-11.353501-27.03857-18.377448-44.363835-18.377448-17.326272 0-33.009327 7.02294-44.362828 18.375434l0 0c-4.563149 4.720221-10.956793 7.659284-18.041152 7.659284-13.860615 0-25.095305-11.23469-25.095305-25.096312C295.194549 821.957574 298.133611 815.56393 302.853832 811.000781z"  horiz-adv-x="1024" />

    
    <glyph glyph-name="jiankuohaoyuanxia" unicode="&#58947;" d="M511.600078 895.000195C229.155243 895.000195 0.09998 665.944933 0.09998 383.500098s229.055263-511.500098 511.500098-511.500098 511.500098 229.055263 511.500098 511.500098S794.044913 895.000195 511.600078 895.000195zM822.339387 72.760789c-40.392111-40.392111-87.382933-72.085921-139.772701-94.181605-54.089436-22.895528-111.678188-34.493263-171.066589-34.493263-59.388401 0-116.877172 11.597735-171.066589 34.493263-52.289787 22.095684-99.38059 53.789494-139.772701 94.181605-40.392111 40.392111-72.085921 87.382933-94.181605 139.772701C83.683656 266.622925 72.085921 324.111697 72.085921 383.500098c0 59.388401 11.597735 116.877172 34.493263 171.066589 22.095684 52.289787 53.789494 99.38059 94.181605 139.772701 40.392111 40.392111 87.382933 72.085921 139.772701 94.181605C394.722906 811.41652 452.211677 823.014255 511.600078 823.014255c59.388401 0 116.877172-11.597735 171.066589-34.493263 52.289787-22.095684 99.38059-53.789494 139.772701-94.181605 40.392111-40.392111 72.085921-87.382933 94.181605-139.772701 22.895528-54.089436 34.493263-111.678188 34.493263-171.066589 0-59.388401-11.597735-116.877172-34.493263-171.066589C894.425308 160.143722 862.731498 113.1529 822.339387 72.760789zM768.249951 519.773482c-10.49795 0-20.396016-3.999219-27.894552-11.497754L510.500293 279.320445 282.744776 507.275923c-15.396993 15.396993-40.492091 15.396993-55.789104 0-15.396993-15.396993-15.396993-40.492091 0-55.789104l255.750049-255.750049c7.498535-7.498535 17.396602-11.597735 27.994532-11.597735 10.697911 0 20.595977 4.099199 27.894552 11.497754l257.749658 256.749854c7.398555 7.498535 11.497754 17.496583 11.497754 27.994532s-4.099199 20.495997-11.597735 27.894552C788.745948 515.574302 778.747901 519.773482 768.249951 519.773482z"  horiz-adv-x="1024" />

    
    <glyph glyph-name="jiankuohaoyuanzuo" unicode="&#58949;" d="M512 823.07122c59.342049 0 116.885854-11.588683 171.032976-34.466341 52.348878-22.178341 99.303024-53.847415 139.763512-94.208 40.360585-40.360585 72.129561-87.414634 94.208-139.763512C939.982049 500.386341 951.570732 442.842537 951.570732 383.500488s-11.588683-116.885854-34.466341-171.032976c-22.178341-52.348878-53.847415-99.303024-94.208-139.763512-40.360585-40.360585-87.414634-72.129561-139.763512-94.208C628.885854-44.481561 571.342049-56.070244 512-56.070244s-116.885854 11.588683-171.032976 34.466341c-52.348878 22.178341-99.303024 53.847415-139.763512 94.208-40.360585 40.360585-72.129561 87.414634-94.208 139.763512C84.017951 266.614634 72.429268 324.158439 72.429268 383.500488s11.588683 116.885854 34.466341 171.032976c22.178341 52.348878 53.847415 99.303024 94.208 139.763512 40.360585 40.360585 87.414634 72.129561 139.763512 94.208C395.114146 811.482537 452.657951 823.07122 512 823.07122M512 895.000976C229.475902 895.000976 0.499512 666.024585 0.499512 383.500488s228.97639-511.500488 511.500488-511.500488 511.500488 228.97639 511.500488 511.500488S794.524098 895.000976 512 895.000976L512 895.000976zM331.176585 384.499512c0-9.990244 4.096-19.480976 11.388878-26.274341l235.569951-220.78439c14.485854-13.586732 37.26361-12.887415 50.850341 1.598439 13.586732 14.485854 12.887415 37.26361-1.598439 50.850341L419.790049 384.499512l207.497366 194.510049c14.485854 13.586732 15.185171 36.364488 1.598439 50.850341-13.586732 14.485854-36.364488 15.185171-50.850341 1.598439l-235.569951-220.78439C335.272585 403.980488 331.176585 394.489756 331.176585 384.499512z"  horiz-adv-x="1024" />

    
    <glyph glyph-name="jiankuohaocudayou" unicode="&#58955;" d="M276.755-46.936c28.497-29.315 74.739-29.315 103.307 0l367.236 378.011c28.483 29.367 28.483 76.982 0 106.291l-367.236 377.997c-28.562 29.367-74.806 29.367-103.307 0-28.546-29.325-28.546-76.929 0-106.304l315.6-324.841-315.599-324.803c-28.545-29.367-28.544-76.973 0-106.356l0 0z"  horiz-adv-x="1024" />

    
    <glyph glyph-name="x" unicode="&#58921;" d="M955.025078-126.976016c-17.087733 0-34.111467 6.847893-47.743254 20.415681L20.703677 780.081811c-27.263574 27.263574-27.263574 68.158935 0 95.486508 27.263574 27.263574 68.158935 27.263574 95.486508 0l886.578147-886.578147c27.327573-27.327573 27.327573-68.222934 0-95.550507C992.592491-120.128123 975.504758-126.976016 955.025078-126.976016zM68.382932-126.976016c-17.023734 0-34.111467 6.847893-47.743254 20.415681-27.263574 27.327573-27.263574 68.222934 0 95.550507L907.281824 875.568319c27.199575 27.263574 68.222934 27.263574 95.422509 0 27.327573-27.263574 27.327573-68.158935 0-95.486508L116.190185-106.560335C105.950345-120.128123 88.862612-126.976016 68.382932-126.976016z"  horiz-adv-x="1025" />

    
    <glyph glyph-name="dianpu" unicode="&#58912;" d="M794.827869 679.363449C764.397663 679.363449 739.731684 654.717748 739.731684 624.267264 739.731684 605.672555 748.977624 589.243052 763.111573 579.272965 741.876615 463.98403 640.711491 376.343121 519.377359 376.343121 398.043224 376.343121 296.872308 463.962305 275.643143 579.272965 289.765504 589.251742 299.023032 605.674003 299.023032 624.267264 299.023032 654.717748 274.370088 679.363449 243.926846 679.363449 213.483604 679.363449 188.830661 654.717748 188.830661 624.267264 188.830661 602.224156 201.803073 583.25289 220.545509 574.43999 244.394646 431.013506 369.278562 321.267212 519.399082 321.267212 669.519604 321.267212 794.396276 431.020746 818.252656 574.43999 836.974815 583.247095 849.967504 602.227053 849.967504 624.267264 849.961712 654.717748 825.26387 679.363449 794.856837 679.363449L794.827869 679.363449ZM905.010102 872.184167 133.704061 872.184167C72.940682 872.184167 23.517484 822.80152 23.517484 761.997589L23.517484-9.308453C23.517484-70.050106 72.943579-119.495031 133.704061-119.495031L905.010102-119.495031C965.773482-119.495031 1015.196679-70.054451 1015.196679-9.308453L1015.196679 761.997589C1015.196679 822.798624 965.770584 872.184167 905.010102 872.184167L905.010102 872.184167ZM960.104839-9.301211C960.104839-39.653211 935.380929-64.397396 905.008654-64.397396L133.702613-64.397396C103.339027-64.397396 78.606427-39.654658 78.606427-9.301211L78.606427 762.004831C78.606427 792.401727 103.330337 817.101016 133.702613 817.101016L905.008654 817.101016C935.372239 817.101016 960.104839 792.390141 960.104839 762.004831L960.104839-9.301211 960.104839-9.301211Z"  horiz-adv-x="1024" />

    
    <glyph glyph-name="sousuo1" unicode="&#59084;" d="M711.111 270.222h-44.942l-15.929 15.36c55.751 64.853 89.316 149.049 89.316 240.64 0 204.231-165.547 369.778-369.778 369.778-204.231 0-369.778-165.547-369.778-369.778 0-204.231 165.547-369.778 369.778-369.778 91.591 0 175.787 33.564 240.64 89.316l15.36-15.929v-44.942l284.444-283.876 84.764 84.764-283.876 284.444zM369.778 270.222c-141.653 0-256 114.347-256 256 0 141.653 114.347 256 256 256 141.653 0 256-114.347 256-256 0-141.653-114.347-256-256-256v0z"  horiz-adv-x="1024" />

    
    <glyph glyph-name="wo" unicode="&#59058;" d="M664.861 314.901c73.008 51.573 120.69 136.615 120.69 232.797 0 157.317-127.524 284.84-284.834 284.84-157.309 0-284.831-127.524-284.831-284.84 0-99.533 51.066-187.127 128.416-238.054-144.496-63.028-246.365-205.536-250.36-372.295h40.702C138.94 99.223 245.44 235.623 391.97 284.382c33.51-13.855 70.232-21.517 108.747-21.517 41.828 0 81.548 9.017 117.327 25.212C770.61 242.85 882.725 103.525 887.138-62.65h40.705c-4.112 171.571-111.829 317.473-262.982 377.551z m-164.144-11.336c-134.833 0-244.141 109.305-244.141 244.133 0 134.84 109.308 244.14 244.141 244.14 134.835 0 244.146-109.3 244.146-244.14 0-134.83-109.311-244.133-244.146-244.133z"  horiz-adv-x="1024" />

    
    <glyph glyph-name="daifukuan" unicode="&#59243;" d="M901.565217 7.791304h-823.652174V606.608696h823.652174v-117.982609h66.782609v151.373913c0 17.808696-15.582609 33.391304-33.391304 33.391304h-115.756522V793.6c0 17.808696-15.582609 33.391304-33.391304 33.391304H44.521739c-17.808696 0-33.391304-15.582609-33.391304-33.391304v-821.426087c0-17.808696 15.582609-33.391304 33.391304-33.391304h890.434783c17.808696 0 33.391304 15.582609 33.391304 33.391304v155.826087h-66.782609v-120.208696zM752.417391 760.208696V673.391304H77.913043V760.208696h674.504348zM979.478261 441.878261H678.956522c-73.46087 0-133.565217-60.104348-133.565218-133.565218s60.104348-133.565217 133.565218-133.565217H979.478261c17.808696 0 33.391304 15.582609 33.391304 33.391304v200.347827c0 17.808696-15.582609 33.391304-33.391304 33.391304z m-33.391304-200.347826h-267.130435c-37.843478 0-66.782609 28.93913-66.782609 66.782608s28.93913 66.782609 66.782609 66.782609h267.130435v-133.565217zM670.052174 341.704348h66.782609v-66.782609h-66.782609z"  horiz-adv-x="1024" />

    
    <glyph glyph-name="wo1" unicode="&#58978;" d="M511.658727 279.376151c-73.296353 0-142.200676 28.658713-194.020901 80.696903-51.800783 52.019771-80.328513 121.18299-80.328514 194.749496 0 73.568553 28.52773 142.733818 80.328514 194.755636 51.820226 52.042283 120.724549 80.703043 194.020901 80.703043 73.310679 0 142.218072-28.661783 194.030112-80.704066 51.786457-52.017724 80.307024-121.181967 80.307024-194.754613 0-73.571622-28.520567-142.733818-80.307024-194.748472-51.812039-52.03819-120.720456-80.697927-194.030112-80.697927z m0 509.973854c-128.706337 0-233.416144-105.208157-233.416143-234.527455 0-129.312134 104.709807-234.515175 233.416143-234.515174 128.700197 0 233.404887 105.20304 233.404888 234.515174 0 129.319298-104.705714 234.527454-233.404888 234.527455zM172.328345-70.459492l-40.445154 6.294356c16.521279 106.151645 62.969147 203.146747 130.786719 273.114284 34.05256 35.131125 72.401983 62.571081 113.983007 81.557504 43.310412 19.774369 88.926332 29.801746 135.582955 29.801747 46.13883 0 91.28096-9.81146 134.173862-29.161157 41.189098-18.581194 79.260182-45.462424 113.15413-79.895655 67.388806-68.461231 114.214275-163.693176 131.849933-268.151249l-40.360219-6.813173C817.490158 135.085884 674.996816 279.376151 512.234849 279.376151c-165.406191 0-308.357973-147.127895-339.906504-349.835643z"  horiz-adv-x="1024" />

    
    <glyph glyph-name="wo2" unicode="&#58885;" d="M792.259048 615.228952C792.259048 769.755429 666.526476 895.488 512 895.488c-154.550857 0-280.283429-125.732571-280.283429-280.259048 0-154.550857 125.732571-280.283429 280.283429-280.283428 154.526476 0 280.259048 125.732571 280.259048 280.283428zM512 369.956571c-135.216762 0-245.248 110.031238-245.248 245.272381S376.783238 860.452571 512 860.452571c135.216762 0 245.223619-109.982476 245.223619-245.223619S647.216762 369.956571 512 369.956571z m-171.910095-40.96c-2.56-1.243429-255.024762-128.658286-255.024762-436.150857a17.505524 17.505524 0 0 1 35.011047 0c0 285.184 225.840762 399.945143 235.446858 404.72381a17.529905 17.529905 0 0 1-15.433143 31.427047z m343.844571-2.852571a17.456762 17.456762 0 1 1-15.457524-31.378286c9.606095-4.803048 235.422476-119.56419 235.422477-404.723809a17.505524 17.505524 0 1 1 35.059809 0c0 307.541333-252.513524 434.858667-255.024762 436.102095z"  horiz-adv-x="1024" />

    
    <glyph glyph-name="jiangbei1" unicode="&#58908;" d="M573.8 285.2s28.1 1.3 59.8 34.6c48.2 9.3 228.9 56.1 242.8 232.8 0 0-3.2 93.8-92.1 93.8-27.1 0-47.9-9.2-63.7-22 0.8 18.7 1.2 38.5 1.2 59.4 0 0-2 15.6-16 20.4h-381c-14-4.8-16-20.4-16-20.4 0-20 0.4-38.9 1.1-56.9-16.5 16.4-39.6 29.2-71.6 29.2-88.9 0-92.1-93.7-92.1-93.7C160 386.3 339.4 339.5 388.4 330c35-42.9 68.3-44.9 68.3-44.9 11.5-6.9 14.3-18 15-22.8h-3c-13.3 0-24-10.8-24-24s10.8-24 24-24h1.9c-5.3-19.2-25.3-25.5-25.3-25.5-42.7-15.6-46.5-32.1-46.5-41.7H362c-22.5 0-40.8-18.3-40.8-40.8 0-22.5 18.3-40.8 40.8-40.8h304.4c22.5 0 40.8 18.3 40.8 40.8 0 22.5-18.3 40.8-40.8 40.8h-35c0 9.6-3.8 26.1-46.5 41.7 0 0-20 6.3-25.3 25.5h3.5c13.3 0 24 10.8 24 24s-10.8 24-24 24h-4.6c1 4.9 3.8 15.9 15.3 22.9z m135.4 221.6c6.6-1.5 15.7 1.6 27.9 15.7 0 0-2.4 49.6 8.8 60 0 0 69.6 50.4 85.6-30.4 0 0-5.3-130.5-161.7-178.1 15.6 31.6 29.8 74.5 39.4 132.8z m-518.1 54.9c16 80.8 85.6 30.4 85.6 30.4 11.2-10.4 8.8-60 8.8-60 16.4-19 27.3-18 33.9-12.7 8.8-59.5 22.2-103.8 37.2-136.8-160 46.5-165.5 179.1-165.5 179.1z m363.9-135l-36 18.9c-3.8 2-8.4 2-12.2 0l-36-18.9c-9.6-5.1-20.9 3.1-19 13.8l6.9 40c0.7 4.3-0.7 8.6-3.8 11.6l-29.1 28.4c-7.8 7.6-3.5 20.8 7.3 22.4l40.2 5.8c4.3 0.6 8 3.3 9.9 7.2l18 36.4c4.8 9.7 18.7 9.7 23.5 0l18-36.4c1.9-3.9 5.6-6.6 9.9-7.2l40.2-5.8c10.8-1.6 15-14.8 7.3-22.4L571 492.1c-3.1-3-4.5-7.3-3.8-11.6l6.9-40c1.7-10.7-9.5-18.8-19.1-13.8zM666.6 52.9H362.2c-29.4 0-53.3 23.9-53.3 53.3s23.9 53.3 53.3 53.3h26.3c5.6 16.6 23 30.1 52.7 41 0.2 0.1 0.3 0.1 0.5 0.2 0.5 0.2 5.1 1.9 9.5 5.6-11.3 6.2-18.9 18.2-18.9 32 0 14.8 8.9 27.6 21.6 33.3-0.5 0.5-1.1 1-1.7 1.5-10.4 1.8-40 9.9-70.5 45.5-25.9 5.4-82.4 20.3-134.4 54.7-30.9 20.5-56.1 45-74.6 72.9-22.4 33.6-35.5 72.4-38.8 115.2v1.4c0 1.1 1 26.5 14.1 52.1 12.4 24.5 38.3 53.7 90.5 53.7 21.5 0 41-5.2 58.3-15.6-0.2 10.2-0.3 20.4-0.3 30.7 0 0.5 0 1.1 0.1 1.6 1.1 8.7 7.5 24.9 24.4 30.6 1.3 0.4 2.7 0.7 4.1 0.7h381c1.4 0 2.7-0.2 4.1-0.7 16.9-5.8 23.2-22 24.4-30.7 0.1-0.5 0.1-1.1 0.1-1.6 0-12.1-0.1-24.2-0.4-36.1 15.2 7.5 32.1 11.2 50.4 11.2 52.2 0 78-29.2 90.5-53.7 13-25.6 14-51.1 14.1-52.1v-1.4c-3.4-43-16.5-81.9-39.1-115.6-18.7-27.9-43.9-52.5-75-73.1-52.6-34.7-109.3-49.4-134.9-54.7-27.1-27.1-52-33.6-61.5-35.1-0.4-0.3-0.8-0.7-1.2-1 13.3-5.4 22.7-18.6 22.7-33.8 0-14.2-8.1-26.5-19.9-32.5 4.4-3.6 8.8-5.1 8.9-5.1 0.2-0.1 0.4-0.1 0.5-0.2 29.7-10.9 47.1-24.4 52.7-41H667c29.4 0 53.3-23.9 53.3-53.3-0.4-29.2-24.3-53.2-53.7-53.2z m-304.4 81.7c-15.6 0-28.3-12.7-28.3-28.3 0-15.6 12.7-28.3 28.3-28.3h304.4c15.6 0 28.3 12.7 28.3 28.3 0 15.6-12.7 28.3-28.3 28.3h-35c-3.3 0-6.5 1.3-8.9 3.7-2.3 2.4-3.7 5.5-3.6 8.9 0 10.5-12.8 20.6-38.1 29.9-3.4 1.2-26.5 9.9-33.2 34-1 3.8-0.3 7.8 2.1 10.9 2.4 3.1 6 4.9 9.9 4.9h3.5c6.3 0 11.5 5.2 11.5 11.5s-5.2 11.5-11.5 11.5h-4.6c-3.6 0-7.1 1.6-9.5 4.3-2.4 2.7-3.4 6.4-2.9 10 0.9 6.3 4.8 22 20.9 31.7 1.9 1.1 3.7 1.7 5.8 1.8 1.8 0.2 24.6 2.6 51.4 30.7 1.8 1.9 4.1 3.2 6.7 3.7 51.2 9.9 219.1 54.9 232.6 220.8-0.5 8.1-6.7 81.1-79.5 81.1-21.3 0-40.1-6.5-55.8-19.2-3.8-3.1-9.1-3.7-13.5-1.5s-7.1 6.8-6.9 11.7c0.8 18.8 1.2 38.2 1.2 57.7-0.4 1.8-1.9 6.7-6 9.1h-376c-4.2-2.3-5.6-7.3-6-9 0-18.6 0.4-37.2 1.1-55.2 0.2-5.1-2.8-9.9-7.5-11.9-4.7-2.1-10.2-1.1-13.8 2.6-17.1 17-38.3 25.6-62.8 25.6-72.7 0-79-72.7-79.5-81 13.5-165.2 181-210.4 232.1-220.4 2.9-0.6 5.4-2.1 7.3-4.4 30.1-36.8 57.4-40.2 59.5-40.4 2.1-0.1 3.8-0.7 5.6-1.8 16.1-9.7 20-25.4 20.9-31.7 0.5-3.6-0.5-7.2-2.9-10-2.4-2.7-5.8-4.3-9.5-4.3h-3c-6.3 0-11.5-5.2-11.5-11.5s5.2-11.5 11.5-11.5h1.9c3.9 0 7.6-1.8 9.9-4.9s3.1-7.1 2.1-10.9c-6.6-24.1-29.7-32.8-33.2-34-25.3-9.3-38.2-19.4-38.1-29.9 0-3.3-1.3-6.5-3.6-8.9-2.3-2.4-5.5-3.7-8.9-3.7h-36.6z m307.7 227c-3.6 0-7.1 1.6-9.5 4.4-3.2 3.8-3.9 9.2-1.7 13.6 16.8 34.1 29.7 77.6 38.2 129.3 0.6 3.4 2.5 6.4 5.3 8.3 2.8 1.9 6.3 2.6 9.7 1.9 1.2-0.3 5.5 0.9 12.6 8.1-0.1 5.1-0.1 13.3 0.4 22.2 1.3 22.4 5.2 35.5 12.6 42.4 0.4 0.3 0.8 0.7 1.2 1 1.5 1.1 37.7 26.9 69.3 14.5 18.4-7.2 30.5-24.9 35.9-52.6 0.2-1 0.3-1.9 0.2-2.9-0.1-1.5-1.7-36-23.7-76.6-12.9-23.8-30.1-44.8-51.2-62.6-26.2-22-58.4-38.9-95.7-50.3-1.2-0.5-2.4-0.7-3.6-0.7z m49.9 133.5c-6.7-37.5-15.7-70.8-26.9-99.5 47.5 19.6 82.7 49.9 104.8 90.3 17.3 31.5 20.6 59.1 21.2 65.5-3.8 17.8-10.6 28.8-20.2 32.6-14.9 5.9-36.2-5.1-44.5-10.7-3.5-5.5-5.7-28.8-4.7-50 0.2-3.2-0.9-6.4-3-8.8-9-10.6-18-17.1-26.7-19.4z m-363-125c-1.2 0-2.3 0.2-3.5 0.5-38.2 11.1-71.1 27.9-97.9 50-21.6 17.8-39.3 39-52.4 63-22.5 41.1-24.2 76.2-24.3 77.6 0 1 0 2 0.2 2.9 5.5 27.7 17.6 45.4 35.9 52.6 31.6 12.4 67.8-13.4 69.3-14.5 0.4-0.3 0.8-0.6 1.2-1 7.4-6.9 11.3-19.9 12.6-42.4 0.5-8.8 0.5-17 0.4-22.1 6.1-6.2 11.4-9.3 13.6-7.6 3.5 2.8 8.2 3.4 12.3 1.8 4.1-1.6 7.1-5.4 7.7-9.8 7.8-53 20-97.9 36.2-133.4 2-4.4 1.3-9.7-1.9-13.4-2.4-2.7-5.8-4.2-9.4-4.2zM203.7 560.9c0.6-6.4 4-34.5 21.7-66.3 23-41.4 59.8-72 109.4-91.4-10.7 29.2-19.2 62.8-25.5 100.5-8.9 0.4-20.2 5.2-33.2 20.3-2.1 2.4-3.2 5.6-3 8.8 1 21.2-1.2 44.6-4.7 50-8.3 5.6-29.6 16.6-44.5 10.7-9.6-3.8-16.4-14.8-20.2-32.6z m-12.6 0.8z m77 21.5z"  horiz-adv-x="1024" />

    
    <glyph glyph-name="jiankuohao-xi-xia" unicode="&#58891;" d="M478.312 251.84c24.38-26.901 64.507-26.538 88.507 0.89l270.57 309.222c7.758 8.867 6.86 22.344-2.008 30.103-8.866 7.759-22.344 6.86-30.103-2.007L534.71 280.827c-7.202-8.231-17.541-8.325-24.782-0.335L229.14 590.326c-7.912 8.73-21.403 9.394-30.133 1.482s-9.394-21.403-1.482-30.134l280.786-309.833z"  horiz-adv-x="1024" />

    
    <glyph glyph-name="liwu1" unicode="&#58909;" d="M946.578 642.972H783.142c20.95 26.595 33.43 60.174 33.43 96.575C816.572 825.871 746.443 896 660.12 896c-51.853 0-97.764-25.258-126.291-64.186C505.301 870.742 459.39 896 407.537 896c-86.324 0-156.453-70.129-156.453-156.453 0-36.401 12.48-69.98 33.43-96.575H121.375c-55.865 0-101.181-45.465-101.181-101.182v-125.846c0-45.762 30.607-84.69 72.506-97.021v-345.89c0-54.38 44.276-98.656 98.656-98.656H522.09c3.566-1.486 7.578-2.377 11.738-2.377s8.172 0.891 11.738 2.377H876.3c54.38 0 98.656 44.277 98.656 98.656v345.89c41.9 12.332 72.506 51.26 72.506 97.021V541.79c0.298 55.865-45.019 101.182-100.884 101.182zM660.268 835.677c52.894 0 95.981-43.087 95.981-95.981 0-52.894-43.087-95.982-95.981-95.982h-96.13v96.279c0.149 52.745 43.236 95.684 96.13 95.684z m-252.434 0c52.894 0 95.981-43.087 95.981-95.981v-96.13h-96.278c-52.894 0.148-95.833 43.088-95.833 95.981 0 53.043 43.087 96.13 96.13 96.13zM80.664 415.944V541.79c0 22.435 18.276 40.71 40.711 40.71h382.44v-207.415h-382.44c-22.435 0.149-40.71 18.424-40.71 40.86z m72.507-442.91V314.762h350.644V-65.3h-312.46c-21.097 0-38.184 17.235-38.184 38.333zM876.598-65.3H564.287V314.763H914.93v-341.73c0-21.098-17.235-38.333-38.333-38.333z m110.839 481.244c0-22.435-18.275-40.71-40.71-40.71h-382.44V582.649h382.44c22.435 0 40.71-18.275 40.71-40.71v-125.995z"  horiz-adv-x="1248" />

    
    <glyph glyph-name="zuji" unicode="&#59100;" d="M622.250789-62.447136c-52.454571 0-104.243994 26.114722-132.149498 66.51477-35.754247 51.789423-9.526962 103.79374 11.542871 145.718511 11.430307 22.737818 22.195467 44.227206 23.085742 62.718312a93.120678 93.120678 0 0 1-3.254108 29.819083c-9.414398 33.769037-49.210697 61.541512-87.54367 88.433945-29.256266 20.466083-59.51537 41.699644-80.370308 67.701803-1.023304 1.227965-30.04421 37.442699-19.729304 88.106487 9.209737 45.025383 45.618899 84.627253 108.275812 117.465084a16.475197 16.475197 0 0 0 2.466163 1.115402c2.578726 1.125635 64.785386 26.114722 141.461566 26.114722 92.363433 0 213.082624-35.979374 264.30923-207.249791 3.141544-10.233042 74.987728-254.332014-90.050765-423.586521-5.832834-5.945397-60.978694-62.88204-138.094896-62.88204z m-224.400367 495.995523c16.024943-19.841868 41.474517-37.657593 68.489747-56.609186 46.519407-32.612703 94.604469-66.248711 109.493544-119.378662a150.69177 150.69177 0 0 0 5.270016-47.859935c-1.453092-30.484231-15.472359-58.399968-29.031138-85.415198-19.954431-39.683735-31.384738-65.23564-15.472359-88.321382 17.396171-25.224447 51.789423-42.149898 85.752888-42.149898 54.23512 0 96.282688 44.616061 96.732941 45.025383 0.225127 0.225127 0.450254 0.562817 0.675381 0.787944 141.686693 145.07383 77.351561 366.005196 76.67618 368.133669C763.405364 518.728225 692.643882 574.887157 586.158852 574.887157c-60.374945 0-110.967102-18.491106-118.928409-21.489387-44.830955-23.761122-71.733621-50.438662-77.679018-77.003638-5.495143-23.423432 7.163129-41.24939 8.298997-42.815046zM267.716833 554.155015c-69.830275 0-126.664588 57.837151-126.664589 128.936323s56.82408 128.936323 126.664589 128.936323 126.664588-57.837151 126.664588-128.936323-56.834313-128.936323-126.664588-128.936323z m0 201.539753c-38.670664-0.010233-70.198665-32.510373-70.198665-72.542032s31.497302-72.521565 70.167965-72.521565 70.167966 32.510373 70.167966 72.521565-31.497302 72.521565-70.167966 72.521565z m215.66135-61.86897c-37.217572 0-67.589239 30.821921-67.589239 68.561379s30.269337 68.561378 67.589239 68.561378 67.589239-30.821921 67.589239-68.561378-30.269337-68.561378-67.589239-68.561379z m0 90.234961c-11.317744 0-20.466083-9.639525-20.466083-21.489388s9.209737-21.489387 20.466083-21.489387 20.466083 9.639525 20.466083 21.489387-9.209737 21.489387-20.466083 21.489388z m170.707599-106.157573c-37.217572 0-67.589239 30.699125-67.58924 68.561378s30.259104 68.561378 67.58924 68.561378 67.589239-30.821921 67.589239-68.714874-30.3819-68.489747-67.589239-68.489746z m0 90.122397c-11.317744 0-20.466083-9.639525-20.466083-21.489388s9.209737-21.489387 20.466083-21.489387 20.466083 9.526962 20.466083 21.407523-9.209737 21.63265-20.466083 21.63265zM811.909981 612.329856c-37.217572 0-67.538074 30.821921-67.538074 68.561378s30.259104 68.561378 67.538074 68.561378 67.589239-30.821921 67.58924-68.561378-30.371667-68.561378-67.58924-68.561378z m0 90.122396c-11.317744 0-20.466083-9.639525-20.466083-21.489387s9.209737-21.489387 20.466083-21.489387 20.466083 9.639525 20.466083 21.489387-9.209737 21.489387-20.466083 21.489387z"  horiz-adv-x="1024" />

    
    <glyph glyph-name="liwu2" unicode="&#58965;" d="M505.6 512H512c19.2 0 160 32 192 96 6.4 19.2 12.8 38.4 0 57.6-25.6 57.6-57.6 76.8-76.8 76.8-19.2 0-44.8-6.4-57.6-25.6-19.2-51.2-44.8-108.8-57.6-147.2-12.8 38.4-38.4 96-70.4 140.8-12.8 19.2-38.4 25.6-57.6 25.6-19.2 0-51.2-19.2-76.8-76.8-6.4-19.2-6.4-38.4 6.4-57.6 32-64 172.8-89.6 192-89.6z m102.4 172.8c6.4 6.4 12.8 12.8 25.6 12.8 19.2 0 32-25.6 44.8-57.6 6.4-6.4 6.4-19.2 0-25.6-19.2-32-89.6-57.6-140.8-70.4 12.8 38.4 38.4 102.4 70.4 140.8z m-268.8-38.4c12.8 32 32 51.2 44.8 57.6 12.8 0 19.2-6.4 25.6-12.8 32-44.8 57.6-102.4 64-134.4-44.8 6.4-115.2 32-134.4 64v25.6zM780.8 486.4H236.8c-25.6 0-44.8-25.6-44.8-51.2v-390.4c0-25.6 19.2-44.8 44.8-44.8h544c25.6 0 44.8 19.2 44.8 44.8V435.2c0 25.6-19.2 51.2-44.8 51.2z m-281.6-454.4H236.8c-6.4 0-12.8 6.4-12.8 12.8v32h275.2v-44.8z m294.4 64h-64c-6.4 0-6.4-6.4-6.4-6.4 0-6.4 6.4-6.4 6.4-6.4h64v-32c0-6.4-6.4-12.8-12.8-12.8H518.4v44.8h166.4c6.4 0 6.4 6.4 6.4 6.4 0 6.4-6.4 6.4-6.4 6.4H518.4V371.2c0 6.4-6.4 6.4-6.4 6.4-6.4 0-6.4-6.4-6.4-6.4v-275.2H230.4V435.2c0 6.4 0 12.8 6.4 12.8h262.4v-51.2c0-6.4 6.4-6.4 6.4-6.4 6.4 0 6.4 6.4 6.4 6.4V448h262.4c6.4 0 12.8-6.4 12.8-12.8v-339.2z"  horiz-adv-x="1024" />

    
    <glyph glyph-name="sandian" unicode="&#59018;" d="M161.440203 472.735142a88.754786 88.754786 0 1 1-0.117869-177.470284 88.754786 88.754786 0 0 1 0.117869 177.470284z m380.20366 0a88.754786 88.754786 0 1 1-0.039289-177.470284 88.754786 88.754786 0 0 1 0.039289 177.470284z m380.282239 0a88.754786 88.754786 0 1 1-0.039289-177.470284 88.754786 88.754786 0 0 1 0.039289 177.470284z"  horiz-adv-x="1083" />

    
    <glyph glyph-name="jiandu" unicode="&#58910;" d="M655.36 35.84c90.112-32.768 147.456-94.208 147.456-163.84h-593.92c0 69.632 61.44 131.072 155.648 163.84-172.032 61.44-294.912 225.28-294.912 417.792C69.632 699.392 266.24 896 512 896s442.368-196.608 442.368-442.368c0-192.512-122.88-356.352-299.008-417.792zM520.192 588.8C393.216 588.8 286.72 482.304 286.72 355.328s106.496-233.472 233.472-233.472c131.072 0 233.472 106.496 233.472 233.472S651.264 588.8 520.192 588.8z m0-360.448c-61.44 0-114.688 49.152-114.688 114.688 0 61.44 53.248 114.688 114.688 114.688 61.44 0 114.688-49.152 114.688-114.688 0-61.44-49.152-114.688-114.688-114.688z"  horiz-adv-x="1024" />

    
    <glyph glyph-name="fankui" unicode="&#58911;" d="M462.944256 443.389952H283.14624c-12.480512 0-17.973248-5.938176-17.973248-18.868224 0-13.029376 5.57056-18.874368 17.973248-18.874368h179.79904c12.471296 0 17.983488 5.937152 17.983488 18.874368-0.001024 13.01504-5.567488 18.868224-17.984512 18.868224zM732.65152 405.64736c-11.962368 0-17.987584-11.147264-17.987584-18.871296v-283.066368c0-8.508416-9.780224-18.869248-17.985536-18.869248H229.208064c-8.211456 0-17.987584 10.360832-17.987584 18.869248V594.357248c0 8.59136 9.566208 18.871296 17.987584 18.871296h341.62176c11.713536 0 17.97632 10.110976 17.97632 18.874368 0 8.757248-8.930304 18.871296-17.97632 18.871296H229.208064c-33.384448 0-54.104064-22.951936-54.104064-57.355264l0.165888-489.910272c0-34.35008 20.791296-56.604672 53.938176-56.604672h467.472384c33.114112 0 53.950464 22.207488 53.950464 56.604672V386.77504c-0.001024 13.577216-6.033408 18.87232-17.979392 18.87232zM265.171968 254.68416c0-13.027328 5.595136-18.87232 17.974272-18.87232h377.581568c12.378112 0 17.978368 5.93408 17.978368 18.87232 0 13.018112-5.602304 18.8672-17.978368 18.8672H283.14624c-12.365824 0-17.974272-5.941248-17.974272-18.8672z m575.668224 457.867264c-7.018496 7.365632-17.389568 8.426496-23.170048 2.348032l-261.79584-274.75968c-5.787648-6.073344-4.78208-16.975872 2.236416-24.34048 7.01952-7.364608 17.405952-8.4224 23.18848-2.357248L843.08992 688.22016c5.782528 6.065152 4.784128 16.960512-2.249728 24.331264z"  horiz-adv-x="1024" />

    
    <glyph glyph-name="fankui1" unicode="&#59020;" d="M951.644472 396.51853a49.995387 49.995387 0 0 1-50.07412-50.07412l0.314932-257.850223c-1.10226-74.008919-19.289559-92.668614-101.722897-92.668614l101.171766 0.708596 0.708597 91.802553v-92.511149l-801.500846-0.393665v1.102261l100.935568-0.708596c-75.347378 0-97.077656 15.51038-101.171767 74.638782L99.990773 741.604798l1.102261-45.980009c0 73.693987 12.912194 96.290328 80.858681 99.439643l670.095648 0.393664a49.995387 49.995387 0 1 1 0 100.069507L90.700292 895.133938A99.990773 99.990773 0 0 1 0 797.347686l0.393664-810.633862c4.881439-50.703983 47.475934-90.542826 99.675842-90.542826h53.144703v-0.393664l694.817776 0.393664h53.144703a99.990773 99.990773 0 0 1 100.226972 99.754575v50.074119h0.393664V346.44441a50.231585 50.231585 0 0 1-50.152852 50.07412zM100.226972 795.064432h31.493157-31.493157z m981.562971-16.927572a69.67861 69.67861 0 0 1-98.573581 0L419.646317 213.622021a69.284945 69.284945 0 0 1 0-98.337383 69.757343 69.757343 0 0 1 98.652314 0l563.491312 564.514839a69.284945 69.284945 0 0 1 0 98.337383z"  horiz-adv-x="1102" />

    
    <glyph glyph-name="dingyue" unicode="&#58979;" d="M512 896c282.758737 0 512-229.241263 512-512s-229.241263-512-512-512S0 101.241263 0 384 229.241263 896 512 896z m246.972632-208.033684A74.805895 74.805895 0 0 1 708.419368 707.368421H341.477053c-19.617684 0-37.510737-7.464421-50.553264-19.402105A64.646737 64.646737 0 0 1 269.473684 640.323368l0.053895-576.997052c0-3.880421 1.077895-7.814737 3.260632-11.37179a23.767579 23.767579 0 0 1 31.770947-7.626105l206.767158 118.029474a27.297684 27.297684 0 0 0 27.216842 0l205.312-117.221053a23.713684 23.713684 0 0 1 13.365895-4.096c12.826947 0 23.201684 9.970526 23.201684 22.204632V640.323368c0 18.593684-8.218947 35.489684-21.450105 47.642948zM679.882105 405.800421c0-5.793684-4.823579-10.509474-10.725052-10.509474h-108.597895v-106.199579c0-5.793684-4.823579-10.509474-10.752-10.509473h-49.77179a10.617263 10.617263 0 0 0-10.725052 10.509473v106.199579h-108.597895a10.617263 10.617263 0 0 0-10.752 10.509474v48.693895c0 5.793684 4.823579 10.509474 10.752 10.509473h108.597895v106.172632c0 5.820632 4.796632 10.509474 10.725052 10.509474h49.77179c5.928421 0 10.752-4.688842 10.752-10.509474v-106.172632h108.597895c5.928421 0 10.725053-4.715789 10.725052-10.509473v-48.693895z"  horiz-adv-x="1024" />

    
    <glyph glyph-name="jingpai" unicode="&#58914;" d="M156.444444 375.466667c45.511111-48.355556 93.866667-93.866667 139.377778-142.222223 14.222222-14.222222 39.822222-17.066667 54.044445-2.844444 11.377778 8.533333 19.911111 19.911111 31.288889 28.444444 2.844444 2.844444 2.844444 5.688889 0 11.377778-68.266667 68.266667-136.533333 139.377778-207.644445 207.644445l-5.688889 5.688889c-11.377778-11.377778-22.755556-22.755556-34.133333-36.977778-11.377778-11.377778-11.377778-36.977778-2.844445-48.355556 11.377778-8.533333 19.911111-17.066667 25.6-22.755555zM634.311111 583.111111l34.133333-34.133333c11.377778 8.533333 19.911111 19.911111 31.288889 28.444444 8.533333 8.533333 14.222222 19.911111 14.222223 31.288889 0 11.377778-2.844444 22.755556-11.377778 31.288889-51.2 51.2-102.4 105.244444-153.6 156.444444-14.222222 17.066667-39.822222 19.911111-59.733334 0-8.533333-8.533333-17.066667-17.066667-28.444444-25.6-5.688889-2.844444-5.688889-5.688889 0-11.377777 54.044444-56.888889 113.777778-116.622222 173.511111-176.355556z m-91.022222-537.6h-56.888889v2.844445c2.844444 2.844444 8.533333 5.688889 11.377778 8.533333 22.755556 14.222222 25.6 39.822222 14.222222 59.733333-8.533333 17.066667-25.6 19.911111-42.666667 19.911111H201.955556c-8.533333 0-19.911111 0-28.444445-5.688889-28.444444-14.222222-31.288889-54.044444-8.533333-73.955555 2.844444-2.844444 8.533333-5.688889 11.377778-11.377778v-2.844444H125.155556c-14.222222 0-25.6-5.688889-34.133334-19.911111-11.377778-17.066667-8.533333-39.822222 5.688889-54.044445 11.377778-8.533333 22.755556-11.377778 36.977778-11.377778H543.288889c5.688889 0 11.377778 0 17.066667 2.844445 14.222222 5.688889 25.6 22.755556 25.6 42.666666s-19.911111 42.666667-42.666667 42.666667z m395.377778 14.222222c-2.844444 17.066667-8.533333 31.288889-22.755556 42.666667-39.822222 39.822222-79.644444 82.488889-119.466667 122.311111-65.422222 68.266667-133.688889 136.533333-199.111111 201.955556-8.533333 8.533333-17.066667 17.066667-22.755555 25.6 17.066667 19.911111 36.977778 36.977778 54.044444 56.888889 5.688889 5.688889 5.688889 5.688889 0 11.377777-68.266667 68.266667-136.533333 136.533333-201.955555 204.8-2.844444 2.844444-5.688889 2.844444-8.533334 0-68.266667-71.111111-139.377778-142.222222-207.644444-210.488889 0-2.844444 2.844444-2.844444 5.688889-5.688888 68.266667-68.266667 136.533333-139.377778 204.8-207.644445 2.844444-2.844444 5.688889-2.844444 8.533333 0 8.533333 8.533333 17.066667 17.066667 25.6 28.444445 8.533333 11.377778 19.911111 19.911111 28.444445 31.288888 0-2.844444 0-5.688889 2.844444-5.688888 48.355556-51.2 99.555556-99.555556 147.911111-150.755556 65.422222-65.422222 130.844444-133.688889 199.111111-199.111111 8.533333-8.533333 19.911111-14.222222 31.288889-17.066667 11.377778-2.844444 25.6 0 36.977778 5.688889 19.911111 5.688889 39.822222 34.133333 36.977778 65.422222z"  horiz-adv-x="1024" />

    
    <glyph glyph-name="cloud-evaluate" unicode="&#59064;" d="M793.703 662.16v0zM704.348 608.061c-32.639-5.319-69.572 6.673-92.907 29.935l-95.559 95.233-81.456-91.339c-23.353-26.183-62.070-39.547-96.495-33.234l-111.427 20.431c-1.443-13.706-2.237-28.673-2.237-44.813 0-182.027 130.903-326.816 288.532-326.816 157.647 0 288.532 144.788 288.532 326.816 0 14.607-0.559 27.7-1.587 39.313l-95.396-15.526zM476.733 187.292c-182.244 20.017-324.598 190.106-324.598 396.983 0 69.861 13.435 111.031 13.435 111.031 2.671 9.722 12.249 15.861 22.198 14.228l163.165-29.934c9.575-1.75 22.992 2.831 29.646 10.279l96.19 107.893c19.908 22.271 53.161 23.299 74.297 2.254l111.301-110.958c6.961-6.925 20.63-11.397 30.386-9.81l145.347 23.658c10.018 1.388 19.585-4.62 22.686-14.247 3.1-9.626 12.677-32.063 12.677-104.394 0-206.84-142.336-376.948-324.598-396.965v-201.557c0-0.043 0-0.093 0-0.144 0-19.899-16.131-36.030-36.030-36.030-0.013 0-0.026 0-0.039 0-19.907 0-36.064 16.013-36.064 36.157v201.556h0.001zM833.321 201.808c1.373 0.185 2.96 0.291 4.572 0.291 19.918 0 36.064-16.146 36.064-36.064 0-5.263-1.127-10.262-3.153-14.77-5.284-11.76-16.686-20.176-30.154-21.194-84.042-9.574-159.907-56.875-207.695-128.395-11.111-16.443-33.417-20.822-49.919-9.797-16.501 11.024-20.997 33.308-10.059 49.867 59.437 88.94 154.129 147.999 260.345 160.062zM184.125 130.145c-18.317 1.881-32.485 17.229-32.485 35.886 0 8.134 2.693 15.64 7.236 21.673 6.582 8.742 17.047 14.394 28.832 14.394 1.61 0 3.196-0.106 4.751-0.31 106.033-12.062 200.743-71.102 260.163-160.042 10.937-16.559 6.442-38.843-10.059-49.867-16.501-11.024-38.809-6.646-49.92 9.797-47.788 71.52-123.653 118.821-208.518 128.469z"  horiz-adv-x="1024" />

    
    <glyph glyph-name="kefu" unicode="&#59034;" d="M960.678854 443.739111a452.260889 452.260889 0 0 1-904.521779 0A69.329722 69.329722 0 0 1 0 375.795983v-129.415482a69.329722 69.329722 0 0 1 69.329722-69.329722h19.643422a69.329722 69.329722 0 0 1 69.329722 69.329722v129.415482a69.329722 69.329722 0 0 1-55.925976 67.943128 406.041074 406.041074 0 0 0 812.082149 0 69.329722 69.329722 0 0 1-55.925976-67.943128v-129.415482a69.329722 69.329722 0 0 1 69.329722-69.329722H947.506206a69.329722 69.329722 0 0 1 69.329723 69.329722v129.415482a69.329722 69.329722 0 0 1-56.157075 67.943128zM112.083051 375.795983v-129.415482a23.109907 23.109907 0 0 0-23.109907-23.109907H69.329722a23.109907 23.109907 0 0 0-23.109907 23.109907v129.415482a23.109907 23.109907 0 0 0 23.109907 23.109907h19.643422a23.109907 23.109907 0 0 0 23.109907-23.109907zM970.616114 246.380501a23.109907 23.109907 0 0 0-23.109908-23.109907h-19.643421a23.109907 23.109907 0 0 0-23.109908 23.109907v129.415482a23.109907 23.109907 0 0 0 23.109908 23.109907H947.506206a23.109907 23.109907 0 0 0 23.109908-23.109907zM508.417964 611.517039a300.428797 300.428797 0 1 1 303.201986-300.428797A302.046491 302.046491 0 0 1 508.417964 611.517039z m0-554.637779a254.208982 254.208982 0 1 0 256.982171 254.208982A255.826676 255.826676 0 0 0 508.417964 56.87926zM695.146017-81.780185H321.689912a23.109907 23.109907 0 1 1 0-46.219815h373.456105a23.109907 23.109907 0 1 1 0 46.219815z"  horiz-adv-x="1024" />

    
    <glyph glyph-name="up" unicode="&#58915;" d="M143.89824099999998 625.4899019999998c-18.020155000000006 17.819853999999992-47.143649 17.819854-65.097286-2.1316282072803006e-14-17.953636999999993-17.753339000000008-17.95363699999999-46.61057400000001 1.4210854715202004e-14-64.429405L479.95791499999996 165.10648999999967c18.020155000000006-17.819853999999992 47.077130999999994-17.819853999999992 65.097286 2.1316282072803006e-14L946.2121609999998 561.0594740000003c17.953636999999997 17.819854000000007 18.020154999999974 46.61057400000001-1.4210854715202004e-14 64.429405s-47.210166 17.81985399999999-65.097286 0.06651499999998833l-368.64106399999986-350.1416120000001L143.89824099999998 625.4899019999998 143.89824099999998 625.4899019999998z"  horiz-adv-x="1024" />

    
    <glyph glyph-name="jiankuohaoxizuo" unicode="&#58892;" d="M363.840919 423.021263C336.938714 398.641139 337.301807 358.513862 364.730379 334.513862L673.951902 63.945029999999974C682.818816 56.18648099999996 696.296418 57.08498799999995 704.05497 65.95190200000002 711.813519 74.81881599999997 710.915012 88.29641800000002 702.048098 96.05497000000003L392.826577 366.62380199999996C384.59578 373.825747 384.502227 384.164713 392.492414 391.40582L702.325747 672.192277C711.056111 680.104171 711.719614 693.595384 703.807723 702.325748 695.895829 711.056111 682.404617 711.719614 673.674253 703.807722L363.840919 423.021263Z"  horiz-adv-x="1024" />

    
    <glyph glyph-name="pingjia" unicode="&#58916;" d="M359.424-60.416c-16.896 4.096-27.136 20.992-23.04 37.376 2.56 11.264 11.776 20.48 23.04 23.04h601.6c16.896-3.584 27.136-19.968 23.552-36.864-2.56-11.776-11.776-20.992-23.552-23.552H359.424z m-237.056 338.432c-37.376-89.088-65.536-181.76-83.456-276.48l-0.512-2.56 2.56 0.512c92.672 22.016 182.784 53.248 269.824 92.672l2.048 1.024-188.928 186.368-1.536-1.536z m32.768 40.96l194.048-194.048 385.536 378.368-195.072 195.072-384.512-379.392z m566.272 509.44c-32.256 0-63.488-12.8-86.528-35.328l-59.392-58.88 194.048-194.048 61.44 58.88c47.104 46.592 47.616 122.368 1.536 169.472l-1.536 1.536-23.04 23.04c-23.04 22.528-53.76 35.328-86.528 35.328z m-184.32-769.024c-15.872 3.072-26.624 18.432-23.552 34.304 2.048 11.776 11.776 21.504 23.552 23.552h422.912c15.872-3.072 26.624-18.432 23.552-34.304-2.048-11.776-11.776-21.504-23.552-23.552h-422.912z"  horiz-adv-x="1024" />

    
    <glyph glyph-name="paimai1" unicode="&#58928;" d="M935.96 111.45L659.87 391.44 790.4 523.8c21.81 22.11 21.81 58.11 0 80.22L586.49 810.78c-10.56 10.71-24.6 16.62-39.54 16.62-14.94 0-28.98-5.91-39.54-16.62L114.74 412.62c-10.56-10.71-16.38-24.96-16.38-40.11 0-15.15 5.82-29.4 16.38-40.11l203.91-206.76c10.56-10.71 24.6-16.62 39.54-16.62 14.94 0 28.98 5.91 39.54 16.62L528.23 258l276.09-279.99c10.56-10.71 24.6-16.62 39.54-16.62 14.94 0 28.98 5.91 39.54 16.62l52.5 53.22c21.84 22.14 21.84 58.11 0.06 80.22zM587.93 391.44L899.99 75c1.98-2.01 1.98-5.28 0-7.29l-52.5-53.22a5.02 5.02 0 0 0-3.6-1.5c-0.96 0-2.37 0.27-3.6 1.5L528.26 330.9 361.79 162.09c-1.23-1.26-2.64-1.5-3.6-1.5s-2.37 0.27-3.6 1.5L150.68 368.85a5.082 5.082 0 0 0-1.5 3.63c0 0.99 0.27 2.4 1.5 3.66L543.32 774.3a5.02 5.02 0 0 0 3.6 1.5c0.96 0 2.37-0.27 3.6-1.5l203.91-206.76c1.98-2.01 1.98-5.28 0-7.29l-166.5-168.81z m-135.36-412.5H107.72c-14.04 0-25.41-11.55-25.41-25.77 0-14.25 11.37-25.8 25.41-25.8h344.85c14.04 0 25.41 11.55 25.41 25.8s-11.37 25.77-25.41 25.77z m0 0"  horiz-adv-x="1024" />

    
    <glyph glyph-name="xiangshangjiantouarrowup1" unicode="&#58917;" d="M313.174 15.898000000000025c-17.821-18.02-17.82-47.144-1e-8-65.098 17.75300001-17.954 46.611-17.953 64.42900001 0l395.954 401.157c17.821 18.02 17.82 47.077 0 65.098l-395.953 401.157c-17.82 17.954-46.611 18.02-64.429 0s-17.82-47.21-0.067-65.097l350.142-368.641-350.077-368.576z"  horiz-adv-x="1024" />

    
    <glyph glyph-name="zuokuohao" unicode="&#58893;" d="M379.840919 417.68793C352.938714 393.30780601 353.301807 353.180529 380.730379 329.180529L689.951902 58.61169700000005C698.818816 50.85314800000003 712.296418 51.75165400000003 720.05497 60.61856899999998 727.813519 69.48548300000004 726.915012 82.96308499999998 718.04809801 90.72163599999999L408.826577 361.29046800000003C400.59578 368.49241399000005 400.502227 378.83137899999997 408.492414 386.072486L718.325747 666.8589440000001C727.056111 674.770837 727.71961399 688.262051 719.80772301 696.992414 711.895829 705.7227780000001 698.404617 706.38627999 689.67425299 698.474388L379.840919 417.68793Z"  horiz-adv-x="1024" />

    
    <glyph glyph-name="sandian1" unicode="&#59128;" d="M510.9248-17.6128m-110.3872 0a110.3872 110.3872 0 1 1 220.7744 0 110.3872 110.3872 0 1 1-220.7744 0ZM510.9248 390.8608m-110.3872 0a110.3872 110.3872 0 1 1 220.7744 0 110.3872 110.3872 0 1 1-220.7744 0ZM510.9248 785.6128m-110.3872 0a110.3872 110.3872 0 1 1 220.7744 0 110.3872 110.3872 0 1 1-220.7744 0Z"  horiz-adv-x="1024" />

    
    <glyph glyph-name="shoucang" unicode="&#58918;" d="M707.584 802.816c-77.312 0-148.992-38.912-196.608-102.912-47.104 64-119.296 102.912-196.608 102.912-139.264 0-252.416-123.904-252.416-275.968 0-90.624 40.448-154.624 73.216-205.824C229.888 172.032 468.48-12.8 478.72-20.48c9.728-7.68 20.992-11.264 32.256-11.264s22.528 3.584 32.256 11.264c10.24 7.68 248.32 193.024 343.552 341.504 32.768 51.2 73.216 115.2 73.216 205.824 0 152.064-113.152 275.968-252.416 275.968zM821.76 322.56c-87.552-122.88-272.896-263.168-282.112-269.824-8.704-6.656-18.944-10.24-28.672-10.24-10.24 0-19.968 3.072-28.672 10.24-9.216 6.656-190.976 148.48-282.112 274.944-29.184 46.08-75.776 103.424-75.776 184.32 0 136.192 75.776 231.936 200.192 231.936 69.12 0 144.384-66.048 186.368-123.392 42.496 57.344 117.248 123.392 186.368 123.392 124.928 0 205.824-95.744 205.824-231.936 0-80.896-51.712-143.872-81.408-189.44z"  horiz-adv-x="1024" />

    
    <glyph glyph-name="daishouhuo1" unicode="&#58958;" d="M993.28 542.72q38.912-53.248 58.368-113.664t27.136-118.272 7.168-108.032-0.512-81.92q0-6.144-1.024-14.848t-3.584-17.408-6.144-14.848-9.728-6.144h-41.984q0 34.816-10.752 59.392t-28.672 39.936-41.984 22.528-50.688 7.168-49.152-10.24-39.424-27.648-26.624-40.448-9.728-48.64H747.52q-18.432 0-31.744 13.312t-13.312 31.744V608.256q0 11.264 7.68 26.112t18.944 15.872q33.792 3.072 70.656-2.56t72.704-18.944 67.584-34.816 53.248-51.2z m-16.384-220.16q12.288 0 21.504 0.512t9.216 12.8q0 2.048-0.512 3.072t-0.512 3.072q-11.264 50.176-24.576 96.768t-45.056 79.36q-20.48 19.456-44.032 28.16t-44.544 11.264-35.328 1.536-15.36-1.024q-13.312 0-22.528-9.728t-9.216-20.992v-93.184q0-40.96 1.024-91.136v-1.024q0-5.12 7.168-12.288t14.336-7.168h188.416zM636.928 775.168l2.048-666.624q0-17.408-11.776-28.672t-28.16-11.264H319.488q0 60.416-30.72 95.232t-96.256 34.816q-62.464 0-95.744-32.256t-33.28-97.792H39.936q-17.408 0-28.672 10.24T0 108.544v532.48q0 24.576 9.216 48.128t26.112 43.008 39.424 31.232 49.152 11.776h513.024zM896 132.096q26.624 0 46.08-19.456t19.456-46.08q0-27.648-19.456-47.104T896 0q-27.648 0-46.592 19.456t-18.944 47.104q0 26.624 18.944 46.08T896 132.096z m-704.512 1.024q27.648 0 46.592-19.456t18.944-47.104q0-26.624-18.944-46.08t-46.592-19.456-46.592 19.456-18.944 46.08q0 27.648 18.944 47.104t46.592 19.456z"  horiz-adv-x="1086" />

    
    <glyph glyph-name="pingjia1" unicode="&#58919;" d="M177.292549 896h467.626667c0-7.830588-0.100392-23.592157-0.100392-31.422745-154.503529-0.301176-309.007059 0.501961-463.410197-0.401569-81.92-1.505882-152.495686-76.8-150.086274-158.418823-0.100392-214.538039-0.100392-429.076078 0-643.614118-1.104314-61.138824 37.145098-120.169412 92.862745-144.76549 30.117647-14.556863 64.150588-14.858039 96.878431-14.757647 204.298039 0.602353 408.495686-0.401569 612.793726 0.501961 81.418039-1.907451 156.41098 67.865098 158.418823 149.684706 1.104314 171.469804 0.100392 343.04 0.401569 514.509803 7.830588 0.100392 23.491765 0.100392 31.322353 0.100393-0.501961-171.77098 0.903529-343.541961-0.602353-515.212549-2.007843-93.866667-83.727059-175.184314-176.991372-180.203922H179.400784C85.835294-124.185098 5.12-43.871373 0 49.493333V716.699608C4.015686 810.164706 84.028235 890.779608 177.292549 896zM891.482353 877.628235c60.938039 38.952157 149.584314-10.541176 149.383529-82.42196 4.718431-63.949804-58.227451-96.878431-93.866666-139.745883-12.047059 4.116078-23.491765 10.139608-31.924706 19.978039-36.944314 37.24549-74.290196 74.189804-110.933334 111.636079 21.483922 36.341961 54.01098 65.355294 87.341177 90.553725m-46.782745-84.73098c32.225882-33.02902 65.15451-65.556078 97.882353-98.083137 20.881569 23.190588 47.184314 42.566275 61.841568 70.575686 18.572549 41.060392-14.356078 92.461176-59.13098 93.665882-44.373333 1.706667-70.475294-40.357647-100.592941-66.158431zM707.865098 699.733333c24.294902 24.294902 47.686275 49.694118 74.992941 70.776471 39.55451-28.611765 69.37098-67.865098 106.415686-99.388235 12.247843-14.054902 43.168627-33.02902 20.48-52.10353C752.941176 461.301961 595.124706 304.489412 438.211765 146.974118c-16.966275-16.464314-32.326275-36.141176-55.014902-44.774902-64.351373-27.00549-127.698824-56.621176-192.250981-83.024314-21.88549-6.625882-30.017255 14.958431-19.57647 31.322353 26.603922 61.239216 53.308235 122.478431 79.912157 183.617255 9.336471 22.387451 28.912941 37.647059 45.276862 54.512941 137.236078 136.83451 274.070588 274.17098 411.306667 411.105882M334.105098 281.298824c-19.576471-21.182745-44.975686-38.65098-56.420392-66.05804-22.086275-51.400784-44.272941-102.801569-66.861177-154.10196 51.400784 24.19451 103.80549 46.180392 155.90902 68.869019 25.098039 9.135686 41.060392 31.623529 59.833726 49.392941 151.692549 151.592157 302.983529 303.585882 455.077647 454.776471-34.133333 31.121569-67.664314 63.046275-98.585098 97.480784-148.178824-151.592157-299.469804-299.971765-448.953726-450.359215z"  horiz-adv-x="1044" />

    
    <glyph glyph-name="xiangshangjiantouarrowup2" unicode="&#59006;" d="M737.489902 752.101759c17.819854 18.020155 17.819854 47.143649 0 65.097286-17.75333901 17.953637-46.610574 17.953637-64.429405 0L277.10649 416.042085c-17.819854-18.020155-17.819854-47.077131 0-65.097286L673.059474-50.21216100000004c17.819854-17.953637 46.610574-18.020155 64.429405 0s17.819854 47.210166 0.066515 65.097286l-350.141612 368.641064L737.489902 752.101759 737.489902 752.101759z"  horiz-adv-x="1024" />

    
    <glyph glyph-name="dianpu1" unicode="&#58920;" d="M952.786158 543.199059c0 0.516042-0.172014 0.860071-0.172014 1.376113-0.344028 1.892155-0.860071 3.612296-1.548127 5.332437L875.895851 736.714934c-13.073072 38.703175-50.22812 62.441122-93.919704 62.613136L255.440954 799.32807c-44.207626 0-78.610449-23.565933-90.995464-60.720981L83.770872 548.015454c-0.344028-1.204099-0.860071-2.752226-1.204099-4.472367-5.84848-18.061482-8.77272-36.466991-8.77272-55.044515 0-65.193348 35.778935-124.71023 93.231648-155.328742 0 0 0 0 0 0s0 0 0 0l0 0c0 0 0 0 0 0 23.565933-12.55703 51.432219-18.921552 82.738787-18.921552 52.464304 0.172014 101.144297 23.221905 134.34302 62.78515 33.026709-39.219217 81.19066-62.097094 133.654964-62.441122 51.948261 0.344028 100.112212 23.393919 132.966907 62.613136 33.198723-39.563245 81.878717-62.441122 134.687049-62.441122 31.994625 0.172014 60.204939 6.880564 84.1149 19.953637 56.592642 30.96254 91.683521 90.135394 91.683521 154.640685C961.386864 507.764153 958.29061 526.341676 952.786158 543.199059zM839.084831 390.622543c-14.449185-7.912649-32.510667-12.040988-53.668402-12.040988-39.047203 0-74.48211 19.781623-95.295817 53.324374-1.548127 3.096254-3.956325 8.428691-8.600706 13.417101-5.332437 5.84848-14.793214 12.901058-30.618512 12.901058-12.729044 0-24.25399-5.160423-30.790526-13.245087-4.300353-4.816395-6.70855-9.63279-8.428691-13.245087-20.469679-33.198723-55.732572-53.15236-93.919704-53.324374-38.703175 0.172014-73.966068 20.125651-94.607761 53.496388-1.376113 2.92424-3.78431 7.912649-7.568621 12.040988-14.965228 17.889467-48.679993 17.029397-61.753066 1.376113-4.816395-5.332437-7.396607-10.664875-8.944734-14.277171-20.641693-33.198723-56.248614-52.980346-94.951789-53.15236-20.641693 0-38.359147 3.956325-52.636318 11.524945l0 0c0 0 0 0 0 0-36.639006 19.437594-59.344868 57.452713-59.344868 98.908114 0 12.213002 2.064169 24.598018 6.192508 36.639006 0.344028 0.860071 0.516042 1.892155 0.688056 2.752226l79.470519 187.839409c1.548127 4.816395 6.536536 19.437594 31.306568 19.437594l526.707206 0c10.148833-0.688056 27.694272-2.408198 33.88678-20.641693l74.310096-185.259197c0.344028-1.376113 0.688056-2.580212 1.032085-3.612296 4.128339-12.040988 6.192508-24.25399 6.192508-36.466991C897.397615 448.075256 875.03578 410.404166 839.084831 390.622543zM862.994793 288.102133c-17.717453 0-31.994625-14.277171-31.994625-31.994625l0-174.594322c0-9.976818-8.084663-18.061482-18.061482-18.061482l-602.049387-0.344028c-9.976818 0-18.061482 8.084663-18.061482 17.889467l-0.172014 171.498068c0 17.717453-14.449185 31.994625-31.994625 31.994625 0 0 0 0 0 0-17.717453 0-31.994625-14.449185-31.994625-31.994625l0.172014-171.498068c0-45.067697 36.81102-81.878717 82.050731-81.878717l602.221401 0.344028c45.067697 0.172014 81.878717 36.81102 81.878717 82.050731l0 174.594322C894.989417 273.65294800000004 880.712246 288.102133 862.994793 288.102133zM768.043004 512.064505L255.956996 512.064505c-17.717453 0-31.994625 14.277171-31.994625 31.994625 0 17.717453 14.277171 31.994625 31.994625 31.994625l511.913993 0c17.717453 0 31.994625-14.277171 31.994625-31.994625C800.037628 526.341676 785.588443 512.064505 768.043004 512.064505z"  horiz-adv-x="1024" />

    
    <glyph glyph-name="icon" unicode="&#58880;" d="M720.8509355045926 90.07480103822218L288.20882985718526 90.07480103822218c-83.80316361007405 0-151.9805556811852 68.1773920711111-151.9805556811852 151.98179843792593L136.228274176 455.5305621428149c0 83.79571192414815 68.1773920711111 151.96813660918517 151.9805556811852 151.96813660918517l394.4234219140741 0c13.585305751703702 0 24.601088151703706-11.013299313777775 24.601088151703706-24.598605065481475 0-13.584062994962963-11.01454207051852-24.597363522370372-24.601088151703706-24.597363522370372L288.20882985718526 558.3027313777777c-56.67850376533332 0-102.78582985007408-46.101115941925926-102.78582985007408-102.77216923496296L185.4230000071111 242.0565982625185c0-56.67850376533332 46.10732608474075-102.78582985007408 102.78582985007408-102.78582985007408l432.64210564740733 0c56.67726222222222 0 102.78458830696296 46.10732608474075 102.78458830696296 102.78582985007408 0-0.012419072-0.14157839170370368 257.56938816474076-0.14157839170370368 354.5120088367407 0 48.08942235496296 13.515757492148145 85.12331836681481 40.18339233185185 110.08207894755554 36.03415525451852 33.71922712651852 82.40600890785184 31.07146471348148 84.37817040592591 30.92740202192593 13.557983307851853-0.9003881813333333 23.817440218074076-12.617853610666668 22.917052036740742-26.172111075555556-0.8979038814814814-13.559224850962961-12.530920106666667-23.79881221688889-26.165900932740737-22.91581049362963-0.08072457481481482 0-27.73568109985185 1.080465332148148-47.91182829037037-18.13568018962963-16.066650415407405-15.307840625777777-24.2074012634074-40.13247450074074-24.2074012634074-73.78712075377777 0-96.92896005688888 0.14281993481481484-354.49958976474073 0.14281993481481484-354.49958976474073C872.8302496426666 158.25219310933335 804.6540991146666 90.07480103822218 720.8509355045926 90.07480103822218zM683.1613081220742 402.6709454696296L326.66471871525926 402.6709454696296c-13.584062994962963 0-24.597363522370372 11.013299313777775-24.597363522370372 24.59612076562963 0 13.585305751703702 11.013299313777775 24.598605065481475 24.597363522370372 24.598605065481475l356.4965881931852 0c13.584062994962963 0 24.597363522370372-11.013299313777775 24.597363522370372-24.598605065481475C707.7586704308147 413.684245997037 696.7466126601482 402.6709454696296 683.1613081220742 402.6709454696296zM683.1613081220742 246.9435328284444L326.66471871525926 246.9435328284444c-13.584062994962963 0-24.597363522370372 11.01454207051852-24.597363522370372 24.597363522370372 0 13.585305751703702 11.013299313777775 24.598605065481475 24.597363522370372 24.598605065481475l356.4965881931852 0c13.584062994962963 0 24.597363522370372-11.012057770666667 24.597363522370372-24.598605065481475C707.7586704308147 257.95931644207417 696.7466126601482 246.9435328284444 683.1613081220742 246.9435328284444zM847.3200800805928 7.419166720000021m-49.1947258311111 0a48.07429688888889 48.07429688888889 0 1 1 98.3894516622222 0 48.07429688888889 48.07429688888889 0 1 1-98.3894516622222 0ZM172.71448583585186 7.419166720000021m-49.1947258311111 0a48.07429688888889 48.07429688888889 0 1 1 98.3894516622222 0 48.07429688888889 48.07429688888889 0 1 1-98.3894516622222 0Z"  horiz-adv-x="1024" />

    
    <glyph glyph-name="subscibe" unicode="&#58922;" d="M134.656 896v-1024L512 115.96799999999996 889.216-128V896H134.656z m201.728-669.76l-11.136-11.84-59.328 57.472 12.096 11.52c11.456 10.88 17.088 26.304 17.088 47.104V510.208H213.632V585.216h159.296v-230.336c22.72 16.064 48.576 35.136 77.312 56.832l20.352 15.424 4.992-25.088c3.712-18.816 7.424-35.072 11.072-48.768l2.944-11.136-9.6-6.4c-37.248-24.512-75.2-51.456-112.832-80.128a321.664 321.664 0 0 1-30.784-29.376z m473.856 432.256h-127.808v-361.856c0-59.904-32.576-93.056-91.712-93.504H473.472l-2.24 13.376a3070.08 3070.08 0 0 1-9.024 51.84l-3.648 20.672 20.992-1.856a1072 1072 0 0 1 96.384-5.056c19.328 0 26.496 7.296 26.496 27.072V658.496H422.464l-61.056-57.408-10.944 12.544a1331.2 1331.2 0 0 1-94.976 97.792l-12.224 11.456 54.912 53.12 11.072-9.728a1990.336 1990.336 0 0 0 102.016-95.808l5.504-5.568V732.928h393.472v-74.432z"  horiz-adv-x="1024" />

    
    <glyph glyph-name="fankui2" unicode="&#58954;" d="M985.613641 491.793375a20.78067 20.78067 0 0 1-19.086594-24.45117q0.508223-2.87993 1.016446-5.646921a462.70873 462.70873 0 0 0-533.0129-533.0129c-177.990959 29.138114-348.923266 200.070421-378.06138 378.06138a462.595792 462.595792 0 0 0 533.0129 533.0129 387.548208 387.548208 0 0 0 90.35074-26.935815 21.006547 21.006547 0 0 1 14.625526-0.847038l15.190219 4.912822a20.83714 20.83714 0 0 1 1.750545 38.850818h-0.451753a512.006353 512.006353 0 0 1-398.333828-943.261731 511.667538 511.667538 0 0 1 711.116798 471.687335 514.829813 514.829813 0 0 1-8.300975 91.028371 20.893609 20.893609 0 0 1-21.966524 16.940764zM1097.535621 873.186438c-51.895207 41.504871-176.409821 31.114536-347.624475-98.595246-243.834061-181.604988-352.819642-420.243882-508.222915-653.744077-25.919369-36.309704 15.585503-57.090374 46.700039-41.504871l98.595246 57.090374c15.585503 5.195168 20.724201 5.195168 15.585502 31.114536-10.390335 77.814575 20.78067 150.433983 67.42424 212.719525 171.158184-72.619408 378.513134-31.058067 451.132542 176.409821 93.400078 20.78067 181.604988 124.514614 197.134022 197.134022 15.585503 51.895207 10.390335 98.595246-20.724201 119.319447z"  horiz-adv-x="1127" />

    
    <glyph glyph-name="jingpai1" unicode="&#59046;" d="M853.333333 896H170.666667a170.666667 170.666667 0 0 1-170.666667-170.666667v-682.666666a170.666667 170.666667 0 0 1 170.666667-170.666667h682.666666a170.666667 170.666667 0 0 1 170.666667 170.666667V725.333333a170.666667 170.666667 0 0 1-170.666667 170.666667zM484.906667 92.8a14.72 14.72 0 0 0-14.72-14.72H213.333333a14.72 14.72 0 0 0-14.72 14.72v40.32a14.72 14.72 0 0 0 14.72 14.72h256a14.72 14.72 0 0 0 14.72-14.72z m313.813333 3.626667a40.533333 40.533333 0 0 0-57.813333 0l-196.906667 198.4a42.666667 42.666667 0 0 1-60.586667 0l-49.706666-50.346667 10.453333-10.666667a12.8 12.8 0 0 0 0-18.346666 68.053333 68.053333 0 0 0-97.066667 0l-118.186666 119.04a69.333333 69.333333 0 0 0 0 97.706666 13.226667 13.226667 0 0 0 18.346666 0l10.453334-10.453333L475.733333 641.28l-10.666666 10.453333a13.653333 13.653333 0 0 0-3.626667 9.386667 13.013333 13.013333 0 0 0 3.626667 9.173333 69.973333 69.973333 0 0 0 97.28 0l118.186666-119.04a69.973333 69.973333 0 0 0 0-97.92 12.8 12.8 0 0 0-18.346666 0l-10.666667 10.666667-49.706667-50.133333a42.666667 42.666667 0 0 1 0-61.013334l196.906667-198.4a41.173333 41.173333 0 0 0 0-58.026666z"  horiz-adv-x="1024" />

    
    <glyph glyph-name="kefu1" unicode="&#58923;" d="M609.524 792.478c-222.89 0-403.712-178.472-403.712-398.78 0-220.31 180.823-398.782 403.712-398.782 222.889 0 403.712 178.473 403.712 398.781 0 220.309-180.823 398.781-403.712 398.781v-48.762c196.1 0 354.95-156.785 354.95-350.019s-158.85-350.019-354.95-350.019-354.95 156.785-354.95 350.02c0 193.233 158.85 350.018 354.95 350.018v48.762zM786.578-20.340000000000032c166.45 69.217 278.408 231.055 278.408 414.035 0 248.026-203.847 449.219-455.457 449.219-251.619 0-455.457-201.188-455.457-449.22 0-55.397 10.152-109.367 29.718-159.975 4.855-12.56-1.39-26.677-13.949-31.533-12.56-4.855-26.677 1.39-31.532 13.949a490.396 490.396 0 0 0-3.042 8.078c-1.85-0.077-3.711-0.116-5.581-0.116C58.06 224.09699999999998 0 281.403 0 352.097c0 65.005 49.09 118.69 112.68 126.91C153.65 713.44 360.56 891.676 609.528 891.676c248.962 0 455.877-178.24 496.85-412.67 63.583-8.225 112.669-61.907 112.669-126.909 0-70.694-58.06-128-129.686-128-1.89 0-3.771 0.04-5.642 0.119-47.536-129.702-148.34-235.841-279.493-290.027-1.161-33.464-29.012-60.24-63.2-60.24-34.925 0-63.237 27.944-63.237 62.416 0 34.471 28.312 62.415 63.237 62.415 17.892 0 34.048-7.333 45.551-19.12zM609.528 284.595c-58.933 0-112.056 10.644-158.472 28.342-16.123 6.147-30.211 12.702-42.138 19.208-6.926 3.777-11.447 6.59-13.437 7.972-19.24 13.373-44.428-5.446-37.059-27.688 35.296-106.527 136.054-179.913 251.106-179.913 115.05 0 215.796 73.384 251.092 179.913 7.37 22.243-17.82 41.062-37.06 27.687-1.99-1.383-6.51-4.195-13.434-7.972-11.926-6.505-26.012-13.06-42.133-19.207-46.413-17.698-99.533-28.342-158.465-28.342z"  horiz-adv-x="1220" />

    
    <glyph glyph-name="dingyue-copy-copy" unicode="&#58924;" d="M227.28433703 200.31445924000002c-44.99438889 0-81.52281852-36.69398704-81.52281852-81.68935555 0-44.99438889 36.52745001-81.68837593 81.52281852-81.68837592 44.82981111 0 81.52281852 36.69398704 81.52281853 81.68837592-0.16653705 44.99536851-36.6930074 81.68935555-81.52281853 81.68935555zM175.98015369 747.89411479c-18.26323518 0-33.20650556-14.94327038-33.20650556-33.20748517 0-18.26323518 14.94327038-33.20650556 33.20650556-33.20650556 337.21496851 0 611.50244815-274.28747963 611.50244815-611.50244815 0-18.26421482 14.94327038-33.20650556 33.20650556-33.20650555 18.26421482 0 33.20748518 14.94229074 33.20748518 33.20650555 0 373.90797593-304.175 677.91643889-677.91643889 677.91643888m0 0M490.44812222 383.78145555000003c-39.68185741 39.84839444-86.50325555 70.89579629-139.30235372 92.31539814-54.29303333 22.08183149-113.40192593 33.20650556-175.33117221 33.20650555-18.26421482 0-33.20748518-14.94327038-33.20748518-33.20650555 0-18.26421482 14.94327038-33.20748518 33.20748518-33.20748518 216.17487038 0 373.07725001-157.56558889 373.07725-374.73772223 0-18.26421482 14.94327038-33.20748518 33.20748518-33.20748518 18.26323518 0 33.20650556 14.94327038 33.20650556 33.20748518 0 61.93022593-11.12467407 121.03813889-33.04094814 175.49770927-21.25208518 53.29675001-52.13490926 100.28468518-91.81676667 140.1321m0 0"  horiz-adv-x="1024" />

    
    <glyph glyph-name="qicheqianlian--copy" unicode="&#58881;" d="M908.629333 152.23466699999994H257.877333c-19.285333 0-37.376 7.509333-50.858666 21.162666-13.482667 13.653333-20.992 31.573333-20.821334 50.858667l2.389334 479.232c0 19.114667-6.656 31.914667-39.765334 37.205333h-0.170666l-95.573334 16.384c-9.216 1.536-15.530667 10.410667-13.994666 19.626667 1.536 9.216 10.410667 15.530667 19.626666 13.994667l95.402667-16.384c45.397333-7.168 68.437333-31.061333 68.437333-70.997334L220.16 223.914667c0-10.069333 3.754667-19.456 10.922667-26.453334 7.168-7.168 16.554667-11.093333 26.624-11.093333h650.752c9.386667 0 17.066667-7.68 17.066666-17.066667s-7.509333-17.066667-16.896-17.066666zM859.989333 250.19733299999996l-602.624 1.877334c-18.944 0.170667-36.693333 7.509333-50.005333 20.992-13.312 13.482667-20.48 31.232-20.48 50.176l1.877333 353.962666L870.570667 626.346667c30.890667-1.194667 55.125333-26.282667 55.125333-57.173334V315.733333c0-36.181333-29.525333-65.536-65.706667-65.536zM257.706667 286.20799999999997l602.453333-1.877333c17.408 0 31.573333 14.165333 31.573333 31.402666V569.173333c0 12.458667-9.898667 22.698667-22.357333 23.04h-0.682667l-645.632 48.128-1.536-317.44c0-9.728 3.754667-18.944 10.581334-25.941333 6.485333-6.826667 15.701333-10.752 25.6-10.752zM324.096 95.91466700000001m-63.658667 0a63.658667 63.658667 0 1 1 127.317334 0 63.658667 63.658667 0 1 1-127.317334 0ZM324.096 15.189333000000033c-44.544 0-80.725333 36.181333-80.725333 80.725334s36.181333 80.725333 80.725333 80.725333c44.544 0 80.725333-36.181333 80.725333-80.725333s-36.181333-80.725333-80.725333-80.725334z m0 127.317334c-25.770667 0-46.592-20.821333-46.592-46.592s20.821333-46.592 46.592-46.592 46.592 20.821333 46.592 46.592-20.821333 46.592-46.592 46.592zM812.714667 95.91466700000001m-63.658667 0a63.658667 63.658667 0 1 1 127.317333 0 63.658667 63.658667 0 1 1-127.317333 0ZM812.714667 15.189333000000033c-44.544 0-80.725333 36.181333-80.725334 80.725334s36.181333 80.725333 80.725334 80.725333 80.725333-36.181333 80.725333-80.725333-36.181333-80.725333-80.725333-80.725334z m0 127.317334c-25.770667 0-46.592-20.821333-46.592-46.592s20.821333-46.592 46.592-46.592 46.592 20.821333 46.592 46.592-20.821333 46.592-46.592 46.592zM710.314667 478.037333H362.496c-9.386667 0-17.066667 7.68-17.066667 17.066667s7.68 17.066667 17.066667 17.066667h347.818667c9.386667 0 17.066667-7.68 17.066666-17.066667s-7.68-17.066667-17.066666-17.066667zM710.314667 379.904H362.496c-9.386667 0-17.066667 7.68-17.066667 17.066667s7.68 17.066667 17.066667 17.066666h347.818667c9.386667 0 17.066667-7.68 17.066666-17.066666s-7.68-17.066667-17.066666-17.066667z"  horiz-adv-x="1024" />

    
    <glyph glyph-name="daifukuan1" unicode="&#58925;" d="M606.315789 244.77193c8.084211 0 15.270175 7.185965 15.270176 15.270175s-7.185965 15.270175-15.270176 15.270176h-68.266666l73.65614 73.65614c6.287719 6.287719 6.287719 15.270175 0 21.557895s-15.270175 6.287719-21.557895 0l-81.74035-81.740351-81.740351 81.740351c-6.287719 6.287719-15.270175 6.287719-21.557895 0s-6.287719-15.270175 0-21.557895l73.65614-73.65614H413.192982c-8.084211 0-15.270175-7.185965-15.270175-15.270176s7.185965-15.270175 15.270175-15.270175h80.842106v-30.540351h-80.842106c-8.084211 0-15.270175-7.185965-15.270175-15.270175s7.185965-15.270175 15.270175-15.270176h80.842106v-58.385965c0-8.084211 7.185965-15.270175 15.270175-15.270175s15.270175 7.185965 15.270176 15.270175v58.385965h80.842105c8.084211 0 15.270175 7.185965 15.270175 15.270176s-7.185965 15.270175-15.270175 15.270175h-80.842105v30.540351h81.74035zM978.189474 361.54386H986.273684c4.491228 0 9.880702 1.796491 13.473684 4.491228s5.389474 8.084211 5.389474 13.473684V533.108772c0 29.642105-24.252632 53.894737-53.894737 53.894737H737.459649L355.705263 841.207018c-11.677193 8.084211-26.049123 10.778947-40.421052 8.08421-14.37193-2.694737-26.049123-10.778947-34.133334-23.354386l-68.266666-103.298246-12.575439 4.491229c-13.473684 4.491228-27.845614 3.592982-41.319298-2.694737-12.575439-6.287719-22.45614-17.964912-26.947369-31.438597l-35.031579-105.094737H68.266667c-29.642105 0-53.894737-24.252632-53.894737-53.894736v-154.498246c0-9.880702 7.185965-17.964912 17.066666-17.964912 3.592982 0 8.084211-0.898246 11.677193-0.898246 53.894737-8.084211 94.315789-54.792982 94.31579-109.585965 0-59.284211-46.708772-107.789474-105.992983-110.48421-9.880702 0-17.066667-8.084211-17.066666-17.964913v-154.498245c0-29.642105 24.252632-53.894737 53.894737-53.894737h882.975438c29.642105 0 53.894737 24.252632 53.894737 53.894737V121.712281c0 5.389474-1.796491 9.880702-5.389474 13.473684-3.592982 3.592982-8.084211 5.389474-13.473684 4.491228H978.189474c-61.080702 0-110.484211 49.403509-110.484211 110.484211 0 61.080702 49.403509 111.382456 110.484211 111.382456zM310.792982 806.175439c2.694737 3.592982 6.287719 6.287719 11.677193 7.185965 4.491228 0.898246 9.880702 0 13.473685-2.694737l336.842105-223.663158h-51.2L247.017544 710.961404 310.792982 806.175439zM165.277193 681.319298c1.796491 4.491228 4.491228 8.084211 8.982456 10.778948 4.491228 1.796491 8.982456 2.694737 13.473684 0.898245l318.877193-105.992982H134.736842l30.540351 94.315789z m666.498246-431.157894c0-78.147368 61.080702-141.922807 137.431579-146.414036v-136.533333c0-9.880702-8.084211-17.964912-17.964913-17.964912H68.266667c-9.880702 0-17.964912 8.084211-17.964913 17.964912V105.54386c70.063158 11.677193 123.059649 71.859649 123.05965 144.617544 0 70.961404-52.996491 132.940351-123.05965 144.617543V533.108772c0 9.880702 8.084211 17.964912 17.964913 17.964912H952.140351c9.880702 0 17.964912-8.084211 17.964912-17.964912v-136.533333c-77.249123-4.491228-138.329825-68.266667-138.329824-146.414035zM510.203509 494.484211c-138.329825 0-251.508772-113.178947-251.508772-251.508772s113.178947-251.508772 251.508772-251.508772 251.508772 113.178947 251.508772 251.508772-113.178947 251.508772-251.508772 251.508772z m0-467.08772c-118.568421 0-215.578947 97.010526-215.578948 215.578948s97.010526 215.578947 215.578948 215.578947 215.578947-97.010526 215.578947-215.578947-97.010526-215.578947-215.578947-215.578948z"  horiz-adv-x="1024" />

    
    <glyph glyph-name="jiangb" unicode="&#58926;" d="M698.5 737.9H323.1c-9.6-1-17.3-8.8-17.3-18.3v-5.4c0-9.6 7.8-17.3 17.3-17.3h375.4c9.6 0 17.3 7.8 17.3 17.3v5.4c0 9.6-7.8 17.3-17.3 18.3zM698.5 688.9H323.1c-14 0-25.3 11.4-25.3 25.3v5.4c0 13.5 10.5 24.8 24.5 26.3h377c14-1.5 24.5-12.8 24.5-26.3v-5.4c0-13.9-11.4-25.3-25.3-25.3z m-374.9 41c-5.5-0.7-9.8-5.2-9.8-10.3v-5.4c0-5.1 4.2-9.3 9.3-9.3h375.4c5.1 0 9.3 4.2 9.3 9.3v5.4c0 5.1-4.3 9.6-9.8 10.3H323.6zM549.1 276.29999999999995c-6.2 17.2-8.4 46.5-9.2 64.8-0.3 8.4-8.4 14.3-16.5 12l-9.1-2.5c-2.3-0.6-4.7-0.6-7 0l-9.1 2.5c-8.1 2.3-16.2-3.6-16.5-12-0.8-18.3-2.9-47.6-9.2-64.8-8.3-23-18.9-39.3-28.6-50.4-7.3-8.4-1.2-21.5 9.9-21.5h113.8c11.1 0 17.2 13.1 9.9 21.5-9.5 11.1-20.1 27.3-28.4 50.4zM567.7 196.39999999999998H453.9c-8.3 0-15.7 4.7-19.1 12.3-3.5 7.5-2.2 16.1 3.2 22.4 11.2 12.9 20.3 29 27.1 47.9 4.4 12.3 7.5 34.5 8.7 62.5 0.3 6.5 3.4 12.3 8.6 16.1 5.2 3.8 11.8 5 18 3.2l9.1-2.5c0.9-0.2 1.8-0.2 2.7 0l9.1 2.5c6.2 1.7 12.8 0.6 18-3.2 5.2-3.8 8.4-9.7 8.6-16.1 1.2-28 4.2-50.1 8.7-62.5 6.8-18.9 15.9-35 27.1-47.9 5.4-6.3 6.6-14.8 3.2-22.4-3.5-7.6-10.8-12.3-19.2-12.3z m-73 149.2c-1.3 0-2.4-0.6-2.9-1-0.7-0.5-2-1.7-2.1-3.9-0.9-20.9-3.2-49.5-9.6-67.2-7.5-20.7-17.6-38.5-30.1-52.9-1.9-2.1-1.1-4.4-0.7-5.3 0.4-0.9 1.7-3 4.6-3h113.9c2.9 0 4.2 2.1 4.6 3 0.4 0.9 1.1 3.1-0.7 5.3-12.5 14.4-22.6 32.2-30.1 52.9-6.4 17.7-8.8 46.3-9.6 67.2-0.1 2.1-1.3 3.3-2.1 3.9s-2.3 1.3-4.3 0.8l-9.1-2.5c-3.7-1-7.6-1-11.3 0l-9.1 2.5c-0.5 0.1-1 0.2-1.4 0.2zM635.9 75H385.7c-16.5 0-29.9 13.4-29.9 29.9V175c0 16.5 13.4 29.9 29.9 29.9h250.1c16.5 0 29.9-13.4 29.9-29.9v-70.1c0.1-16.5-13.3-29.9-29.8-29.9zM635.9 67H385.7c-20.9 0-37.9 17-37.9 37.9V175c0 20.9 17 37.9 37.9 37.9h250.1c20.9 0 37.9-17 37.9-37.9v-70.1c0.1-20.9-16.9-37.9-37.8-37.9zM385.7 197c-12.1 0-21.9-9.8-21.9-21.9V105c0-12.1 9.8-21.9 21.9-21.9h250.1c12.1 0 21.9 9.8 21.9 21.9v70.1c0 12.1-9.8 21.9-21.9 21.9H385.7zM715.5 643.9c-0.5 10.6-9.2 19-19.9 19.1l-184.8 1.1L326 663c-10.7-0.1-19.4-8.5-19.9-19.1-1.5-31.4 0.8-97.7 36.3-166.6 53.3-103.5 155.2-130.1 168.3-133.1 13.1 3.1 115 29.7 168.3 133.1 35.6 68.9 37.9 135.1 36.5 166.6zM510.8 336.1c-0.6 0-1.2 0.1-1.8 0.2-8.1 1.9-37.2 9.6-71.3 29.8-44.8 26.5-79.2 62.6-102.3 107.4-36 69.9-38.8 136.9-37.2 170.6 0.7 14.9 12.9 26.6 27.8 26.7l184.6 1.1h0.5l184.6-1.1c14.9-0.1 27.1-11.8 27.8-26.7 1.6-33.7-1.2-100.7-37.2-170.6-23.1-44.8-57.5-81-102.3-107.4-34.2-20.2-63.2-27.9-71.3-29.8-0.7-0.1-1.3-0.2-1.9-0.2z m0 320L326 655c-6.4 0-11.6-5.1-11.9-11.5-1.5-32.1 1.1-96 35.5-162.6 49.7-96.4 143.7-124.2 161.2-128.6 17.5 4.4 111.5 32.2 161.2 128.6 34.3 66.6 37 130.4 35.5 162.6-0.3 6.4-5.5 11.4-11.9 11.5l-184.8 1.1zM620.8 100h-220c-5.5 0-10 4.5-10 10v60c0 5.5 4.5 10 10 10h220c5.5 0 10-4.5 10-10v-60c0-5.5-4.5-10-10-10zM620.8 92h-220c-9.9 0-18 8.1-18 18v60c0 9.9 8.1 18 18 18h220c9.9 0 18-8.1 18-18v-60c0-9.9-8.1-18-18-18z m-220 80c-1.1 0-2-0.9-2-2v-60c0-1.1 0.9-2 2-2h220c1.1 0 2 0.9 2 2v60c0 1.1-0.9 2-2 2h-220zM697.6 27.799999999999955H324c-13.3 0-24 10.7-24 24s10.7 24 24 24h373.5c13.3 0 24-10.7 24-24 0.1-13.3-10.7-24-23.9-24zM697.6 19.799999999999955H324c-17.6 0-32 14.4-32 32s14.4 32 32 32h373.5c17.6 0 32-14.4 32-32s-14.3-32-31.9-32z m-373.6 48c-8.8 0-16-7.2-16-16s7.2-16 16-16h373.5c8.8 0 16 7.2 16 16s-7.2 16-16 16H324zM732.6 455.2c-5.5 0-11.1 0.8-16.4 2.9-10.2 4.1-17.5 12.1-21.7 23.8-4 11.4-0.7 22 9.9 31.3 8.1 7.1 20 13.2 32.5 19.7 26.7 13.8 57 29.4 63.5 59.1 4.1 18.7 2.3 31.4-5.4 37.6-16.3 13.2-58.4-1.2-71.8-7.3-4-1.8-8.8 0-10.6 4-1.8 4 0 8.8 4 10.6 0.6 0.3 15 6.7 32.6 10.8 25.2 5.8 43.9 3.9 55.8-5.7 12.7-10.3 16.4-28.3 10.9-53.4-8.1-37-43.4-55.2-71.8-69.9-26.4-13.6-38.4-21.1-34.7-31.4 2.6-7.3 6.7-11.9 12.5-14.3 12.8-5.1 31.4 1.9 37.5 5 3.9 2 8.8 0.4 10.8-3.5s0.4-8.8-3.5-10.8c-0.7-0.4-16.7-8.5-34.1-8.5zM291.8 455.2c-17.4 0-33.4 8.1-34.3 8.5-3.9 2-5.5 6.8-3.5 10.8 2 3.9 6.8 5.5 10.8 3.5 6.1-3.1 24.9-10.1 37.5-5 5.8 2.3 9.9 7 12.5 14.3 3.7 10.3-8.4 17.8-34.7 31.4-28.4 14.6-63.7 32.9-71.8 69.9-5.5 25.1-1.8 43.1 10.9 53.4 11.9 9.6 30.7 11.5 55.8 5.7 17.6-4.1 32-10.6 32.6-10.8 4-1.8 5.8-6.6 4-10.6-1.8-4-6.6-5.8-10.6-4-14.4 6.5-55.5 20.5-71.8 7.3-7.6-6.2-9.4-18.8-5.3-37.6 6.5-29.6 36.8-45.3 63.5-59.1 12.6-6.5 24.4-12.6 32.5-19.7 10.6-9.3 14-19.9 9.9-31.3-4.1-11.7-11.4-19.7-21.7-23.8-5.2-2.1-10.8-2.9-16.3-2.9zM514.4 569.4l14.5-29.8c0.6-1.2 1.7-2 3-2.2l32.5-4.8c3.3-0.5 4.6-4.5 2.2-6.9l-23.5-23.2c-0.9-0.9-1.4-2.3-1.1-3.6l5.6-32.7c0.6-3.3-2.8-5.8-5.8-4.2l-29.1 15.5c-1.2 0.6-2.5 0.6-3.7 0L479.9 462c-2.9-1.5-6.3 1-5.8 4.2l5.6 32.7c0.2 1.3-0.2 2.6-1.1 3.6L455 525.8c-2.4 2.3-1.1 6.4 2.2 6.9l32.5 4.8c1.3 0.2 2.4 1 3 2.2l14.5 29.8c1.5 2.9 5.7 2.9 7.2-0.1zM478 453.6c-2.5 0-4.9 0.8-7 2.3-3.7 2.7-5.6 7.2-4.8 11.8l5.2 30.7-22 21.7c-3.3 3.2-4.4 7.9-3 12.3 1.4 4.4 5.1 7.5 9.6 8.1l30.4 4.5 13.6 27.9c2 4.2 6.1 6.7 10.8 6.7 4.6 0 8.7-2.6 10.8-6.7l13.6-27.9 30.4-4.5c4.5-0.7 8.2-3.8 9.6-8.1 1.4-4.4 0.3-9.1-3-12.3l-22-21.7 5.2-30.7c0.8-4.6-1.1-9.1-4.8-11.8-3.7-2.7-8.5-3-12.6-0.9l-27.2 14.4-27.2-14.4c-1.7-0.9-3.7-1.4-5.6-1.4z m-11.7 72.3l17.8-17.6c2.8-2.8 4.1-6.7 3.4-10.6l-4.2-24.7 21.8 11.6c3.5 1.9 7.7 1.9 11.2 0l21.8-11.6-4.2 24.7c-0.7 3.9 0.6 7.8 3.4 10.6l17.8 17.6-24.6 3.6c-3.9 0.6-7.3 3-9 6.6l-10.9 22.3-10.9-22.3c-1.7-3.6-5.1-6-9-6.6l-24.4-3.6z m69.8 17.2z m-28.9 22.8zM489.1 140a22 21.7 90 1 1 43.4 0 22 21.7 90 1 1-43.4 0ZM510.8 110c-16.4 0-29.7 13.5-29.7 30s13.3 30 29.7 30 29.7-13.5 29.7-30-13.3-30-29.7-30z m0 44c-7.6 0-13.7-6.3-13.7-14s6.2-14 13.7-14c7.6 0 13.7 6.3 13.7 14s-6.1 14-13.7 14z"  horiz-adv-x="1024" />

    
    <glyph glyph-name="fahuo" unicode="&#58927;" d="M929.88302187 687.40740693L693.7410368 687.40740693l0-60.6814816 187.93054827 0 76.91377813-333.74814826-249.6739552 0-90.8705184-121.3629632-212.02109653 0-90.8705184 121.3629632L65.4146368 292.97777813000005l76.91377813 333.74814827 187.93054827 0L330.2589632 687.40740693 94.11697813 687.40740693-3.79259307 262.33362987 94.57208853-131.79259307000007l834.8861632 0L1027.79259307 262.33362987 929.88302187 687.40740693zM882.0963552-71.11111146999997L141.9036448-71.11111146999997 66.14281493 232.29629652999995l218.6657184 0 90.8705184-121.3629632 272.6115552 0 90.8705184 121.3629632 218.6657184 0L882.0963552-71.11111146999997zM360.53902187 377.87117013l302.89161493 0 0 333.74814827 130.34382187 0L512 899.79259307 230.22554027 711.6193184l130.34382186 0L360.5693632 377.87117013zM421.1294816 766.17197013l90.8705184 60.6814816 90.8705184-60.6814816 0-327.6193184-181.7410368 0L421.1294816 766.17197013z"  horiz-adv-x="1024" />

    
    <glyph glyph-name="shu" unicode="&#58906;" d="M632.5 753.6c18.6 0 33.6-4.6 43.4-13.4 8.8-7.8 13.2-19.1 13.2-33.5v-457.2H299.4c-22.1 0-43.7-5.7-60.7-16.1-0.2-0.1-0.5-0.3-0.7-0.4V706.7c0 14.1 5.3 24.5 16.7 32.8 12.3 8.9 30.3 14.1 49.5 14.1h328.3m0 40H304.2c-53.1 0-106.2-29-106.2-86.9v-608.3c4.8-43.4 48.3-77.2 91.7-82.1H729c53.1 0 96.6 43.4 96.6 91.7V677.7c0 9.7-9.7 24.1-24.1 24.1-14.5 0-24.1-9.7-24.1-24.1v-560c0-24.1-24.1-48.3-48.3-48.3H304.2c-29 0-62.8 24.1-62.8 48.3v53.1c0 24.1 29 38.6 57.9 38.6h405.5c14.5 0 24.1 9.7 24.1 24.1V706.7c0.2 53.1-38.4 86.9-96.4 86.9z m77.3-632.5H313.9c-14.5 0-24.1-9.7-24.1-24.1 0-14.5 9.7-24.1 24.1-24.1h395.9c14.5 0 24.1 9.7 24.1 24.1 0 14.5-9.7 24.1-24.1 24.1z"  horiz-adv-x="1024" />

    
    <glyph glyph-name="fankui3" unicode="&#58929;" d="M197.403495-127.999988a16.611778 16.611778 0 0 0-7.331129 1.786087c-23.756127 11.07841-28.752502 26.978089-28.752502 34.297544V100.327331H85.93064C27.328302 100.327331 0 127.842413 0 188.219165v619.877327C0 868.484918 25.542215 896 85.93064 896h872.509441c58.590665 0 85.918967-27.515082 85.918967-87.903508v-618.289694c0-60.376752-25.542215-87.891834-85.930641-87.891834H404.251073L210.267993-122.46662a17.615723 17.615723 0 0 0-12.84115-5.533368zM80.572379 830.790306c-10.36631 0-13.576598-2.498187-13.576598-15.537791v-625.445717c0-12.677717 13.926811-24.514923 31.43747-24.514923h100.931438c10.903304 0 18.222759-7.331129 18.222759-18.222759v-166.456324l166.503019 180.943476a20.043868 20.043868 0 0 0 12.84115 5.545042h570.614007c8.393443 0 13.576598 1.961194 13.576597 15.537792V815.252515c0 11.965617-7.856449 15.537791-13.576597 15.537791zM214.377161 594.793318h615.429619a35.733418 35.733418 0 1 1 0 71.466836H214.377161a35.733418 35.733418 0 1 1 0-71.466836zM829.993561 428.652186H214.377161a35.733418 35.733418 0 1 1 0-71.455162h615.429619a35.733418 35.733418 0 0 1 0.186781 71.455162z"  horiz-adv-x="1044" />

    
    <glyph glyph-name="daishouhuo2" unicode="&#58999;" d="M402.944 382.464H311.296c-13.312 0-24.064 10.752-24.064 24.064V520.704c0 13.312 10.752 24.064 24.064 24.064s24.064-10.752 24.064-24.064v-90.112h67.584c13.312 0 24.064-10.752 24.064-24.064-0.512-13.312-11.264-24.064-24.064-24.064zM617.472 621.568c0 39.424-32.256 71.68-71.68 71.68H152.064c-39.424 0-71.68-32.256-71.68-71.68v-371.712c0-39.424 32.256-71.68 71.68-71.68H220.16c-0.512-3.584-0.512-6.656-0.512-10.24 0-52.736 43.008-95.744 95.744-95.744s95.744 43.008 95.744 95.744c0 3.584 0 6.656-0.512 10.24h206.336l0.512 443.392z m-302.08-501.76c-26.624 0-48.128 21.504-48.128 48.128s21.504 48.128 48.128 48.128 48.128-21.504 48.128-48.128-21.504-48.128-48.128-48.128z m253.952 105.984H391.68c-17.408 23.04-45.056 37.888-76.288 37.888s-58.368-14.848-76.288-37.888h-87.04c-12.8 0-23.552 10.752-23.552 23.552V621.568c0 12.8 10.752 23.552 23.552 23.552h393.728c12.8 0 23.552-10.752 23.552-23.552v-395.776zM949.76 402.432l-88.576 128c-21.504 31.744-57.344 50.688-95.744 50.688h-196.096v-403.456h104.448c-0.512-3.584-0.512-6.656-0.512-10.24 0-52.736 43.008-95.744 95.744-95.744s95.744 43.008 95.744 95.744c0 3.072 0 6.144-0.512 9.216l28.16 1.536c30.208 0 66.56 10.752 66.56 62.464l1.024 127.488c0 12.288-3.584 24.064-10.24 34.304z m-95.744 53.76l36.352-52.736h-140.8V456.192H854.016z m-84.992-336.384c-26.624 0-48.128 21.504-48.128 48.128s21.504 48.128 48.128 48.128 48.128-21.504 48.128-48.128-21.504-48.128-48.128-48.128z m123.392 105.984H844.8c-17.408 23.04-45.056 37.888-76.288 37.888s-58.368-14.848-76.288-37.888h-75.776v307.2h147.968c22.016 0 43.008-10.752 55.808-29.184h-71.168c-45.056 0-48.64-32.768-48.64-42.496v-70.144c0-22.528 24.064-36.352 46.592-36.352h163.84l0.512-114.176c0-13.312 0-14.848-18.944-14.848z"  horiz-adv-x="1024" />

    
    </font>
</defs>
</svg>
